<?xml version="1.0" encoding="UTF-8" standalone="no"?>
<!-- Created with Inkscape (http://www.inkscape.org/) -->

<svg
   xmlns:dc="http://purl.org/dc/elements/1.1/"
   xmlns:cc="http://creativecommons.org/ns#"
   xmlns:rdf="http://www.w3.org/1999/02/22-rdf-syntax-ns#"
   xmlns:svg="http://www.w3.org/2000/svg"
   xmlns="http://www.w3.org/2000/svg"
   xmlns:sodipodi="http://sodipodi.sourceforge.net/DTD/sodipodi-0.dtd"
   xmlns:inkscape="http://www.inkscape.org/namespaces/inkscape"
   id="svg2394"
   viewBox="0 0 500 500"
   version="1.0"
   inkscape:version="0.91 r13725"
   sodipodi:docname="map-edit-lock.svg">
  <defs
     id="defs3618" />
  <sodipodi:namedview
     pagecolor="#ffffff"
     bordercolor="#666666"
     borderopacity="1"
     objecttolerance="10"
     gridtolerance="10"
     guidetolerance="10"
     inkscape:pageopacity="0"
     inkscape:pageshadow="2"
     inkscape:window-width="1440"
     inkscape:window-height="836"
     id="namedview3616"
     showgrid="false"
     inkscape:zoom="1.3350176"
     inkscape:cx="245.59921"
     inkscape:cy="225.03259"
     inkscape:window-x="0"
     inkscape:window-y="27"
     inkscape:window-maximized="1"
     inkscape:current-layer="svg2394">
    <inkscape:grid
       type="xygrid"
       id="grid4324" />
  </sodipodi:namedview>
  <path
     style="fill:#2c2c2c;fill-rule:evenodd"
     d="m 122.5625,235.88086 -0.002,0 c -14.13,0 -25.558597,11.43836 -25.558597,25.56836 l 0,155.5 312.429687,0 0,-155.5 c 0,-14.13 -11.43055,-25.56836 -25.56055,-25.56836 l -15.58984,0 c 0.003,-0.0398 0.005,-0.33877 0.008,-0.40039 l -69.73633,0 c -0.0115,0.10906 -0.0215,0.34138 -0.0332,0.40039 -65.89132,-0.43686 -117.23022,0 -175.95703,0 z M 97.357422,434.69922 c 2.024,12.11 12.533128,21.31055 25.203128,21.31055 l 261.30859,0 c 12.67,0 23.18094,-9.20055 25.21094,-21.31055 l -311.720705,0 z"
     id="path14"
     inkscape:connector-curvature="0"
     sodipodi:nodetypes="cssccssccccccssccc" />
  <metadata
     id="metadata3614">
    <rdf:RDF>
      <cc:Work>
        <dc:format>image/svg+xml</dc:format>
        <dc:type
           rdf:resource="http://purl.org/dc/dcmitype/StillImage" />
        <cc:license
           rdf:resource="http://creativecommons.org/licenses/publicdomain/" />
        <dc:publisher>
          <cc:Agent
             rdf:about="http://openclipart.org/">
            <dc:title>Openclipart</dc:title>
          </cc:Agent>
        </dc:publisher>
        <dc:title></dc:title>
        <dc:date>2010-06-25T17:53:36</dc:date>
        <dc:description>a simple padlock icon</dc:description>
        <dc:source>https://openclipart.org/detail/68533/padlock-icon-by-jaschon</dc:source>
        <dc:creator>
          <cc:Agent>
            <dc:title>jaschon</dc:title>
          </cc:Agent>
        </dc:creator>
        <dc:subject>
          <rdf:Bag>
            <rdf:li>black</rdf:li>
            <rdf:li>black and white</rdf:li>
            <rdf:li>key</rdf:li>
            <rdf:li>keyhole</rdf:li>
            <rdf:li>lock</rdf:li>
            <rdf:li>padlock</rdf:li>
            <rdf:li>security</rdf:li>
            <rdf:li>silhouette</rdf:li>
            <rdf:li>symbol</rdf:li>
            <rdf:li>tool</rdf:li>
          </rdf:Bag>
        </dc:subject>
      </cc:Work>
      <cc:License
         rdf:about="http://creativecommons.org/licenses/publicdomain/">
        <cc:permits
           rdf:resource="http://creativecommons.org/ns#Reproduction" />
        <cc:permits
           rdf:resource="http://creativecommons.org/ns#Distribution" />
        <cc:permits
           rdf:resource="http://creativecommons.org/ns#DerivativeWorks" />
      </cc:License>
    </rdf:RDF>
  </metadata>
  <path
     style="fill:#2c2c2c;fill-rule:evenodd"
     d="m 253.22266,51.947266 c -63.73,-0.002 -115.39063,51.660864 -115.39063,115.380854 0,1.75668 0.0432,23.75144 0.11719,42.67188 l 69.41797,0 c -0.1957,-18.90322 -0.30664,-40.87563 -0.30664,-42.67188 0,-25.49 20.67015,-46.15039 46.16015,-46.15039 25.49,0 46.14844,20.66039 46.14844,46.15039 0,3.06001 -0.27961,66.36047 -0.84961,69.23047 l 69.76172,0 c 0.22,-2.94 0.32031,-66.24046 0.32031,-69.23047 0,-63.71999 -51.6589,-115.380854 -115.3789,-115.380854 z"
     id="path14-5"
     inkscape:connector-curvature="0"
     sodipodi:nodetypes="csccsssccsc" />
</svg>
