<?xml version="1.0" encoding="UTF-8" standalone="no"?>
<!-- Created with Inkscape (http://www.inkscape.org/) -->
<svg xmlns:dc="http://purl.org/dc/elements/1.1/" xmlns:cc="http://creativecommons.org/ns#" xmlns:rdf="http://www.w3.org/1999/02/22-rdf-syntax-ns#" xmlns:svg="http://www.w3.org/2000/svg" xmlns="http://www.w3.org/2000/svg" xmlns:xlink="http://www.w3.org/1999/xlink" xmlns:sodipodi="http://sodipodi.sourceforge.net/DTD/sodipodi-0.dtd" xmlns:inkscape="http://www.inkscape.org/namespaces/inkscape" width="30" height="30" id="svg2" sodipodi:version="0.32" inkscape:version="0.46" version="1.0" sodipodi:docbase="D:\gfx" sodipodi:docname="icon_star.svg" inkscape:output_extension="org.inkscape.output.svg.inkscape" inkscape:export-filename="D:\proj\icons\released\icon_star.png" inkscape:export-xdpi="45" inkscape:export-ydpi="45" sodipodi:modified="TRUE">
  <defs id="defs4">
    <linearGradient id="linearGradient3217">
      <stop style="stop-color: rgb(252, 167, 42); stop-opacity: 1;" offset="0" id="stop3219"/>
      <stop style="stop-color: rgb(251, 252, 62); stop-opacity: 1;" offset="1" id="stop3221"/>
    </linearGradient>
    <linearGradient inkscape:collect="always" xlink:href="#linearGradient3217" id="linearGradient3223" x1="22.54495" y1="22.204718" x2="13.470417" y2="12.072944" gradientUnits="userSpaceOnUse"/>
  </defs>
  <sodipodi:namedview id="base" pagecolor="#ffffff" bordercolor="#666666" borderopacity="1.0" inkscape:pageopacity="0.0" inkscape:pageshadow="2" inkscape:zoom="19.021172" inkscape:cx="9.9653605" inkscape:cy="13.102534" inkscape:document-units="px" inkscape:current-layer="layer1" width="30px" height="30px" showgrid="false" gridtolerance="10000" inkscape:grid-points="true" inkscape:window-width="1679" inkscape:window-height="1003" inkscape:window-x="1" inkscape:window-y="20" showguides="true" inkscape:snap-global="true">
    <inkscape:grid type="xygrid" id="grid2395"/>
  </sodipodi:namedview>
  <metadata id="metadata7">
    <rdf:RDF>
      <cc:Work rdf:about="">
        <dc:format>image/svg+xml</dc:format>
        <dc:type rdf:resource="http://purl.org/dc/dcmitype/StillImage"/>
        <dc:title>icon_star</dc:title>
        <dc:date>2008-05-12</dc:date>
        <dc:creator>
          <cc:Agent>
            <dc:title>Jean-Victor Balin</dc:title>
          </cc:Agent>
        </dc:creator>
        <dc:language>fr-FR</dc:language>
        <dc:subject>
          <rdf:Bag>
            <rdf:li>icon</rdf:li>
            <rdf:li>star</rdf:li>
            <rdf:li>favourite</rdf:li>
          </rdf:Bag>
        </dc:subject>
        <dc:description>jean.victor.balin@gmail.com</dc:description>
        <cc:license rdf:resource="http://creativecommons.org/licenses/publicdomain/"/>
      </cc:Work>
      <cc:License rdf:about="http://creativecommons.org/licenses/publicdomain/">
        <cc:permits rdf:resource="http://creativecommons.org/ns#Reproduction"/>
        <cc:permits rdf:resource="http://creativecommons.org/ns#Distribution"/>
        <cc:permits rdf:resource="http://creativecommons.org/ns#DerivativeWorks"/>
      </cc:License>
    </rdf:RDF>
  </metadata>
  <g inkscape:label="Calque 1" inkscape:groupmode="layer" id="layer1">
    <rect style="fill: rgb(66, 123, 195); fill-opacity: 1; stroke: none;" id="rect3465" width="6" height="0" x="16" y="12.5" ry="0"/>
    <path transform="matrix(0.994842, 0.101436, -0.101436, 0.994842, -1.1763, -2.37706)" style="fill: rgb(245, 121, 0); fill-opacity: 1; stroke: none;" d="M 16.4375,1.6875 C 16.026964,1.7197225 15.672893,1.9883275 15.53125,2.375 L 12.40625,10.78125 L 3.75,12.96875 C 3.3610339,13.064737 3.0602494,13.373158 2.9740419,13.764408 C 2.8878343,14.155657 3.0311442,14.561929 3.34375,14.8125 L 10.375,20.375 L 9.75,29.3125 C 9.7203881,29.718354 9.927305,30.104937 10.281441,30.305391 C 10.635578,30.505846 11.073522,30.484279 11.40625,30.25 L 18.875,25.3125 L 27.15625,28.625 C 27.526105,28.772057 27.947273,28.697982 28.244755,28.433553 C 28.542238,28.169124 28.665181,27.759546 28.5625,27.375 L 26.15625,18.78125 L 31.90625,11.875 C 32.179476,11.565773 32.246878,11.125443 32.078664,10.748643 C 31.91045,10.371844 31.537631,10.128041 31.125,10.125 L 22.1875,9.78125 L 17.4375,2.1875 C 17.227499,1.843001 16.8391,1.6488018 16.4375,1.6875 L 16.4375,1.6875 z" id="path2426"/>
    <path transform="matrix(0.994842, 0.101436, -0.101436, 0.994842, -1.1763, -2.37706)" style="fill: url(#linearGradient3223) rgb(0, 0, 0); fill-opacity: 1; stroke: none;" d="M 16.59375,3.5 L 13.53125,11.8125 C 13.503478,11.891796 13.447988,11.958385 13.375,12 C 13.355267,12.012485 13.334328,12.022954 13.3125,12.03125 L 4.78125,14.15625 L 11.6875,19.625 C 11.780055,19.700797 11.827249,19.818781 11.8125,19.9375 L 11.21875,28.71875 L 18.5625,23.84375 C 18.655798,23.784312 18.771779,23.772714 18.875,23.8125 L 27.03125,27.09375 L 24.65625,18.59375 C 24.625429,18.485601 24.648704,18.369226 24.71875,18.28125 L 30.375,11.5 L 21.59375,11.15625 C 21.480125,11.153164 21.375148,11.094844 21.3125,11 L 16.59375,3.5 z" id="path2428"/>
  </g>
</svg>