<?xml version="1.0" encoding="UTF-8" standalone="no"?>
<!-- Generator: Adobe Illustrator 13.0.2, SVG Export Plug-In . SVG Version: 6.00 Build 14948)  -->

<svg
   xmlns:dc="http://purl.org/dc/elements/1.1/"
   xmlns:cc="http://creativecommons.org/ns#"
   xmlns:rdf="http://www.w3.org/1999/02/22-rdf-syntax-ns#"
   xmlns:svg="http://www.w3.org/2000/svg"
   xmlns="http://www.w3.org/2000/svg"
   xmlns:xlink="http://www.w3.org/1999/xlink"
   xmlns:sodipodi="http://sodipodi.sourceforge.net/DTD/sodipodi-0.dtd"
   xmlns:inkscape="http://www.inkscape.org/namespaces/inkscape"
   version="1.0"
   id="svg2"
   sodipodi:version="0.32"
   sodipodi:modified="TRUE"
   inkscape:export-ydpi="45"
   inkscape:export-xdpi="45"
   sodipodi:docname="three-stars.svg"
   inkscape:version="0.47 r22583"
   inkscape:export-filename="D:\proj\icons\released\icon_star.png"
   inkscape:output_extension="org.inkscape.output.svg.inkscape"
   x="0px"
   y="0px"
   width="120"
   height="30"
   viewBox="0 0 120 30"
   enable-background="new 0 0 30 30"
   xml:space="preserve"
   style="display:inline"><metadata
   id="metadata17"><rdf:RDF><cc:Work
       rdf:about=""><dc:format>image/svg+xml</dc:format><dc:type
         rdf:resource="http://purl.org/dc/dcmitype/StillImage" /><dc:title></dc:title></cc:Work></rdf:RDF></metadata><defs
   id="defs15"><inkscape:perspective
   sodipodi:type="inkscape:persp3d"
   inkscape:vp_x="0 : 15 : 1"
   inkscape:vp_y="0 : 1000 : 0"
   inkscape:vp_z="30 : 15 : 1"
   inkscape:persp3d-origin="15 : 10 : 1"
   id="perspective19" />
	
	
	
		<linearGradient
   gradientTransform="matrix(0.9948,0.1014,0.1014,-0.9948,58.9338,-31.8961)"
   y2="-58.5979"
   x2="-32.297298"
   y1="-49.6968"
   x1="-43.2197"
   gradientUnits="userSpaceOnUse"
   id="path2428_1_">
		<stop
   id="stop10"
   style="stop-color:#ffffff;stop-opacity:0.92156863;"
   offset="0" />
		<stop
   id="stop12"
   style="stop-color:#bababa;stop-opacity:0.92156863;"
   offset="1" />
	</linearGradient>
	
<inkscape:perspective
   id="perspective3209"
   inkscape:persp3d-origin="0.5 : 0.33333333 : 1"
   inkscape:vp_z="1 : 0.5 : 1"
   inkscape:vp_y="0 : 1000 : 0"
   inkscape:vp_x="0 : 0.5 : 1"
   sodipodi:type="inkscape:persp3d" /><linearGradient
   inkscape:collect="always"
   xlink:href="#path2428_1_-3"
   id="linearGradient2829-3"
   gradientUnits="userSpaceOnUse"
   gradientTransform="matrix(0.9948,0.1014,0.1014,-0.9948,58.9338,-31.8961)"
   x1="-43.2197"
   y1="-49.6968"
   x2="-32.297298"
   y2="-58.5979" /><linearGradient
   gradientTransform="matrix(0.9948,0.1014,0.1014,-0.9948,58.9338,-31.8961)"
   y2="-58.5979"
   x2="-32.297298"
   y1="-49.6968"
   x1="-43.2197"
   gradientUnits="userSpaceOnUse"
   id="path2428_1_-3"><stop
     id="stop10-9"
     style="stop-color:#ffffff;stop-opacity:0.92156863;"
     offset="0" /><stop
     id="stop12-2"
     style="stop-color:#bababa;stop-opacity:0.92156863;"
     offset="1" /></linearGradient><linearGradient
   y2="-58.5979"
   x2="-32.297298"
   y1="-49.6968"
   x1="-43.2197"
   gradientTransform="matrix(0.9948,0.1014,0.1014,-0.9948,58.9338,-31.8961)"
   gradientUnits="userSpaceOnUse"
   id="linearGradient3218"
   xlink:href="#path2428_1_-3"
   inkscape:collect="always" /><inkscape:perspective
   id="perspective4042"
   inkscape:persp3d-origin="0.5 : 0.33333333 : 1"
   inkscape:vp_z="1 : 0.5 : 1"
   inkscape:vp_y="0 : 1000 : 0"
   inkscape:vp_x="0 : 0.5 : 1"
   sodipodi:type="inkscape:persp3d" /><linearGradient
   y2="-58.5979"
   x2="-32.297298"
   y1="-49.6968"
   x1="-43.2197"
   gradientTransform="matrix(0.9948,0.1014,0.1014,-0.9948,58.9338,-31.8961)"
   gradientUnits="userSpaceOnUse"
   id="linearGradient3218-0"
   xlink:href="#path2428_1_-3-7"
   inkscape:collect="always" /><linearGradient
   gradientTransform="matrix(0.9948,0.1014,0.1014,-0.9948,58.9338,-31.8961)"
   y2="-58.5979"
   x2="-32.297298"
   y1="-49.6968"
   x1="-43.2197"
   gradientUnits="userSpaceOnUse"
   id="path2428_1_-3-7"><stop
     id="stop10-9-3"
     style="stop-color:#ffffff;stop-opacity:0.92156863;"
     offset="0" /><stop
     id="stop12-2-7"
     style="stop-color:#bababa;stop-opacity:0.92156863;"
     offset="1" /></linearGradient><linearGradient
   y2="-58.5979"
   x2="-32.297298"
   y1="-49.6968"
   x1="-43.2197"
   gradientTransform="matrix(0.9948,0.1014,0.1014,-0.9948,88.9338,-31.8961)"
   gradientUnits="userSpaceOnUse"
   id="linearGradient4051"
   xlink:href="#path2428_1_-3-7"
   inkscape:collect="always" /><inkscape:perspective
   id="perspective4101"
   inkscape:persp3d-origin="0.5 : 0.33333333 : 1"
   inkscape:vp_z="1 : 0.5 : 1"
   inkscape:vp_y="0 : 1000 : 0"
   inkscape:vp_x="0 : 0.5 : 1"
   sodipodi:type="inkscape:persp3d" /><linearGradient
   y2="-58.5979"
   x2="-32.297298"
   y1="-49.6968"
   x1="-43.2197"
   gradientTransform="matrix(0.9948,0.1014,0.1014,-0.9948,88.9338,-31.8961)"
   gradientUnits="userSpaceOnUse"
   id="linearGradient4051-2"
   xlink:href="#path2428_1_-3-7-9"
   inkscape:collect="always" /><linearGradient
   gradientTransform="matrix(0.9948,0.1014,0.1014,-0.9948,58.9338,-31.8961)"
   y2="-58.5979"
   x2="-32.297298"
   y1="-49.6968"
   x1="-43.2197"
   gradientUnits="userSpaceOnUse"
   id="path2428_1_-3-7-9"><stop
     id="stop10-9-3-2"
     style="stop-color:#ffffff;stop-opacity:0.92156863;"
     offset="0" /><stop
     id="stop12-2-7-6"
     style="stop-color:#bababa;stop-opacity:0.92156863;"
     offset="1" /></linearGradient><linearGradient
   y2="-58.5979"
   x2="-32.297298"
   y1="-49.6968"
   x1="-43.2197"
   gradientTransform="matrix(0.9948,0.1014,0.1014,-0.9948,118.9338,-31.8961)"
   gradientUnits="userSpaceOnUse"
   id="linearGradient4110"
   xlink:href="#path2428_1_-3-7-9"
   inkscape:collect="always" /><inkscape:perspective
   id="perspective4160"
   inkscape:persp3d-origin="0.5 : 0.33333333 : 1"
   inkscape:vp_z="1 : 0.5 : 1"
   inkscape:vp_y="0 : 1000 : 0"
   inkscape:vp_x="0 : 0.5 : 1"
   sodipodi:type="inkscape:persp3d" /><linearGradient
   y2="-58.5979"
   x2="-32.297298"
   y1="-49.6968"
   x1="-43.2197"
   gradientTransform="matrix(0.9948,0.1014,0.1014,-0.9948,118.9338,-31.8961)"
   gradientUnits="userSpaceOnUse"
   id="linearGradient4110-4"
   xlink:href="#path2428_1_-3-7-9-7"
   inkscape:collect="always" /><linearGradient
   gradientTransform="matrix(0.9948,0.1014,0.1014,-0.9948,58.9338,-31.8961)"
   y2="-58.5979"
   x2="-32.297298"
   y1="-49.6968"
   x1="-43.2197"
   gradientUnits="userSpaceOnUse"
   id="path2428_1_-3-7-9-7"><stop
     id="stop10-9-3-2-1"
     style="stop-color:#ffffff;stop-opacity:0.92156863;"
     offset="0" /><stop
     id="stop12-2-7-6-3"
     style="stop-color:#bababa;stop-opacity:0.92156863;"
     offset="1" /></linearGradient><linearGradient
   y2="-58.5979"
   x2="-32.297298"
   y1="-49.6968"
   x1="-43.2197"
   gradientTransform="matrix(0.9948,0.1014,0.1014,-0.9948,148.9338,-31.8961)"
   gradientUnits="userSpaceOnUse"
   id="linearGradient4169"
   xlink:href="#path2428_1_-3-7-9-7"
   inkscape:collect="always" /></defs>
<sodipodi:namedview
   width="30px"
   height="30px"
   id="base"
   showguides="true"
   pagecolor="#ffffff"
   inkscape:cy="9.4130776"
   inkscape:cx="94.205517"
   inkscape:zoom="13.45"
   gridtolerance="10000"
   showgrid="false"
   borderopacity="1.0"
   bordercolor="#666666"
   inkscape:snap-global="true"
   inkscape:window-y="24"
   inkscape:window-x="1"
   inkscape:window-height="1000"
   inkscape:window-width="1679"
   inkscape:grid-points="true"
   inkscape:current-layer="layer2"
   inkscape:document-units="px"
   inkscape:pageshadow="2"
   inkscape:pageopacity="0.0"
   inkscape:window-maximized="0"
   objecttolerance="10000"
   guidetolerance="10000">
	<inkscape:grid
   type="xygrid"
   id="grid2395"
   empspacing="5"
   visible="true"
   enabled="true"
   snapvisiblegridlinesonly="true" />
</sodipodi:namedview>
<polygon
   style="fill:#427bc3"
   points="16,12.5 22,12.5 22,12.5 "
   id="rect3465" />
<g
   inkscape:groupmode="layer"
   id="layer1"
   inkscape:label="black_background"><rect
     style="fill:#000000;fill-opacity:0.62222224;stroke:#000000;stroke-width:0;stroke-miterlimit:4;stroke-opacity:0;stroke-dasharray:none"
     id="rect3239"
     width="120.00001"
     height="30.037174"
     x="0.074349441"
     y="0.037174076" /></g><g
   inkscape:groupmode="layer"
   id="layer2"
   inkscape:label="stars"
   style="display:inline"><path
     style="fill:url(#linearGradient3218)"
     d="m 14.977,2.788 -3.89,7.959 c -0.036,0.076 -0.098,0.137 -0.174,0.171 -0.021,0.01 -0.043,0.019 -0.065,0.024 l -8.703,1.249 6.316,6.141 c 0.084,0.085 0.119,0.207 0.092,0.324 l -1.481,8.676 7.801,-4.105 c 0.099,-0.05 0.215,-0.049 0.314,0 l 7.781,4.092 -1.5,-8.696 c -0.02,-0.11 0.016,-0.225 0.094,-0.305 l 6.314,-6.173 -8.701,-1.232 C 19.063,10.898 18.964,10.83 18.911,10.729 L 14.977,2.788 z"
     id="path2428-4" /><path
     style="fill:url(#linearGradient4051);display:inline"
     d="m 44.977,2.788 -3.89,7.959 c -0.036,0.076 -0.098,0.137 -0.174,0.171 -0.021,0.01 -0.043,0.019 -0.065,0.024 l -8.703,1.249 6.316,6.141 c 0.084,0.085 0.119,0.207 0.092,0.324 l -1.481,8.676 7.801,-4.105 c 0.099,-0.05 0.215,-0.049 0.314,0 l 7.781,4.092 -1.5,-8.696 c -0.02,-0.11 0.016,-0.225 0.094,-0.305 l 6.314,-6.173 -8.701,-1.232 C 49.063,10.898 48.964,10.83 48.911,10.729 L 44.977,2.788 z"
     id="path2428-4-1" /><path
     style="fill:url(#linearGradient4110);display:inline"
     d="m 74.977,2.788 -3.89,7.959 c -0.036,0.076 -0.098,0.137 -0.174,0.171 -0.021,0.01 -0.043,0.019 -0.065,0.024 l -8.703,1.249 6.316,6.141 c 0.084,0.085 0.119,0.207 0.092,0.324 l -1.481,8.676 7.801,-4.105 c 0.099,-0.05 0.215,-0.049 0.314,0 l 7.781,4.092 -1.5,-8.696 c -0.02,-0.11 0.016,-0.225 0.094,-0.305 l 6.314,-6.173 -8.701,-1.232 C 79.063,10.898 78.964,10.83 78.911,10.729 L 74.977,2.788 z"
     id="path2428-4-1-4" /><path
     style="fill:url(#linearGradient4169);display:inline"
     d="m 104.977,2.788 -3.89,7.959 c -0.036,0.076 -0.098,0.137 -0.174,0.171 -0.021,0.01 -0.043,0.019 -0.065,0.024 l -8.703,1.249 6.316,6.141 c 0.084,0.085 0.119,0.207 0.092,0.324 l -1.481,8.676 7.801,-4.105 c 0.099,-0.05 0.215,-0.049 0.314,0 l 7.781,4.092 -1.5,-8.696 c -0.02,-0.11 0.016,-0.225 0.094,-0.305 l 6.314,-6.173 -8.701,-1.232 c -0.112,-0.015 -0.211,-0.083 -0.264,-0.184 l -3.934,-7.941 z"
     id="path2428-4-1-4-9" /></g></svg>