<?xml version="1.0" encoding="UTF-8" standalone="no"?>
<!-- Generator: Adobe Illustrator 13.0.2, SVG Export Plug-In . SVG Version: 6.00 Build 14948)  -->

<svg
   xmlns:dc="http://purl.org/dc/elements/1.1/"
   xmlns:cc="http://creativecommons.org/ns#"
   xmlns:rdf="http://www.w3.org/1999/02/22-rdf-syntax-ns#"
   xmlns:svg="http://www.w3.org/2000/svg"
   xmlns="http://www.w3.org/2000/svg"
   xmlns:xlink="http://www.w3.org/1999/xlink"
   xmlns:sodipodi="http://sodipodi.sourceforge.net/DTD/sodipodi-0.dtd"
   xmlns:inkscape="http://www.inkscape.org/namespaces/inkscape"
   version="1.0"
   id="svg2"
   sodipodi:version="0.32"
   sodipodi:modified="TRUE"
   inkscape:export-ydpi="45"
   inkscape:export-xdpi="45"
   sodipodi:docname="four-star-filter-plus.svg"
   inkscape:version="0.47 r22583"
   inkscape:export-filename="D:\proj\icons\released\icon_star.png"
   inkscape:output_extension="org.inkscape.output.svg.inkscape"
   x="0px"
   y="0px"
   width="140"
   height="30"
   viewBox="0 0 140 30"
   enable-background="new 0 0 30 30"
   xml:space="preserve"
   style="display:inline"><metadata
   id="metadata17"><rdf:RDF><cc:Work
       rdf:about=""><dc:format>image/svg+xml</dc:format><dc:type
         rdf:resource="http://purl.org/dc/dcmitype/StillImage" /><dc:title /></cc:Work></rdf:RDF></metadata><defs
   id="defs15"><inkscape:perspective
   sodipodi:type="inkscape:persp3d"
   inkscape:vp_x="0 : 15 : 1"
   inkscape:vp_y="0 : 1000 : 0"
   inkscape:vp_z="30 : 15 : 1"
   inkscape:persp3d-origin="15 : 10 : 1"
   id="perspective19" />
	
	
	
		<linearGradient
   gradientTransform="matrix(0.9948,0.1014,0.1014,-0.9948,58.9338,-31.8961)"
   y2="-58.5979"
   x2="-32.297298"
   y1="-49.6968"
   x1="-43.2197"
   gradientUnits="userSpaceOnUse"
   id="path2428_1_">
		<stop
   id="stop10"
   style="stop-color:#e0e0e0;stop-opacity:1;"
   offset="0" />
		<stop
   id="stop12"
   style="stop-color:#373737;stop-opacity:1;"
   offset="1" />
	</linearGradient>
	
<linearGradient
   inkscape:collect="always"
   xlink:href="#path2428_1_"
   id="linearGradient2829"
   gradientUnits="userSpaceOnUse"
   gradientTransform="matrix(0.9948,0.1014,0.1014,-0.9948,58.9338,-31.8961)"
   x1="-43.2197"
   y1="-49.6968"
   x2="-32.297298"
   y2="-58.5979" /><inkscape:perspective
   id="perspective3209"
   inkscape:persp3d-origin="0.5 : 0.33333333 : 1"
   inkscape:vp_z="1 : 0.5 : 1"
   inkscape:vp_y="0 : 1000 : 0"
   inkscape:vp_x="0 : 0.5 : 1"
   sodipodi:type="inkscape:persp3d" /><linearGradient
   inkscape:collect="always"
   xlink:href="#path2428_1_-3"
   id="linearGradient2829-3"
   gradientUnits="userSpaceOnUse"
   gradientTransform="matrix(0.9948,0.1014,0.1014,-0.9948,58.9338,-31.8961)"
   x1="-43.2197"
   y1="-49.6968"
   x2="-32.297298"
   y2="-58.5979" /><linearGradient
   gradientTransform="matrix(0.9948,0.1014,0.1014,-0.9948,58.9338,-31.8961)"
   y2="-58.5979"
   x2="-32.297298"
   y1="-49.6968"
   x1="-43.2197"
   gradientUnits="userSpaceOnUse"
   id="path2428_1_-3"><stop
     id="stop10-9"
     style="stop-color:#ffffff;stop-opacity:0.92156863;"
     offset="0" /><stop
     id="stop12-2"
     style="stop-color:#bababa;stop-opacity:0.92156863;"
     offset="1" /></linearGradient><linearGradient
   y2="-57.139297"
   x2="-35.584976"
   y1="-46.334759"
   x1="-45.430847"
   gradientTransform="matrix(0.9948,0.1014,0.1014,-0.9948,58.9338,-31.8961)"
   gradientUnits="userSpaceOnUse"
   id="linearGradient3218"
   xlink:href="#path2428_1_"
   inkscape:collect="always" /><inkscape:perspective
   id="perspective3607"
   inkscape:persp3d-origin="0.5 : 0.33333333 : 1"
   inkscape:vp_z="1 : 0.5 : 1"
   inkscape:vp_y="0 : 1000 : 0"
   inkscape:vp_x="0 : 0.5 : 1"
   sodipodi:type="inkscape:persp3d" /><linearGradient
   y2="-60.536186"
   x2="-32.249207"
   y1="-48.952423"
   x1="-44.715599"
   gradientTransform="matrix(0.9948,0.1014,0.1014,-0.9948,58.9338,-31.8961)"
   gradientUnits="userSpaceOnUse"
   id="linearGradient3218-4"
   xlink:href="#path2428_1_-1"
   inkscape:collect="always" /><linearGradient
   gradientTransform="matrix(0.9948,0.1014,0.1014,-0.9948,58.9338,-31.8961)"
   y2="-58.5979"
   x2="-32.297298"
   y1="-49.6968"
   x1="-43.2197"
   gradientUnits="userSpaceOnUse"
   id="path2428_1_-1"><stop
     id="stop10-6"
     style="stop-color:#e0e0e0;stop-opacity:0.92156863;"
     offset="0" /><stop
     id="stop12-3"
     style="stop-color:#454545;stop-opacity:1;"
     offset="1" /></linearGradient><inkscape:perspective
   id="perspective2875"
   inkscape:persp3d-origin="0.5 : 0.33333333 : 1"
   inkscape:vp_z="1 : 0.5 : 1"
   inkscape:vp_y="0 : 1000 : 0"
   inkscape:vp_x="0 : 0.5 : 1"
   sodipodi:type="inkscape:persp3d" /><linearGradient
   inkscape:collect="always"
   xlink:href="#path2428_1_"
   id="linearGradient3684"
   x1="40.289215"
   y1="11.247496"
   x2="45.111202"
   y2="15.376191"
   gradientUnits="userSpaceOnUse" /><linearGradient
   gradientTransform="matrix(0.9948,0.1014,0.1014,-0.9948,58.9338,-31.8961)"
   y2="-58.5979"
   x2="-32.297298"
   y1="-49.6968"
   x1="-43.2197"
   gradientUnits="userSpaceOnUse"
   id="path2428_1_-3-8"><stop
     id="stop10-9-7"
     style="stop-color:#ffffff;stop-opacity:0.92156863;"
     offset="0" /><stop
     id="stop12-2-3"
     style="stop-color:#bababa;stop-opacity:0.92156863;"
     offset="1" /></linearGradient><linearGradient
   inkscape:collect="always"
   xlink:href="#linearGradient3612"
   id="linearGradient3618"
   x1="49.337769"
   y1="20.002615"
   x2="40.295216"
   y2="10.759528"
   gradientUnits="userSpaceOnUse" /><linearGradient
   inkscape:collect="always"
   id="linearGradient3612"><stop
     style="stop-color:#000000;stop-opacity:1;"
     offset="0"
     id="stop3614" /><stop
     style="stop-color:#000000;stop-opacity:0;"
     offset="1"
     id="stop3616" /></linearGradient><inkscape:perspective
   id="perspective3697"
   inkscape:persp3d-origin="0.5 : 0.33333333 : 1"
   inkscape:vp_z="1 : 0.5 : 1"
   inkscape:vp_y="0 : 1000 : 0"
   inkscape:vp_x="0 : 0.5 : 1"
   sodipodi:type="inkscape:persp3d" /><linearGradient
   inkscape:collect="always"
   xlink:href="#path2428_1_-9"
   id="linearGradient3684-5"
   x1="40.289215"
   y1="11.247496"
   x2="45.111202"
   y2="15.376191"
   gradientUnits="userSpaceOnUse" /><linearGradient
   gradientTransform="matrix(0.9948,0.1014,0.1014,-0.9948,58.9338,-31.8961)"
   y2="-58.5979"
   x2="-32.297298"
   y1="-49.6968"
   x1="-43.2197"
   gradientUnits="userSpaceOnUse"
   id="path2428_1_-9"><stop
     id="stop10-66"
     style="stop-color:#e0e0e0;stop-opacity:0.92156863;"
     offset="0" /><stop
     id="stop12-1"
     style="stop-color:#454545;stop-opacity:1;"
     offset="1" /></linearGradient><linearGradient
   y2="9.9702187"
   x2="40.538078"
   y1="21.004431"
   x1="49.944931"
   gradientUnits="userSpaceOnUse"
   id="linearGradient2889-7"
   xlink:href="#linearGradient3612-5"
   inkscape:collect="always" /><linearGradient
   inkscape:collect="always"
   id="linearGradient3612-5"><stop
     style="stop-color:#000000;stop-opacity:1;"
     offset="0"
     id="stop3614-5" /><stop
     style="stop-color:#000000;stop-opacity:0;"
     offset="1"
     id="stop3616-6" /></linearGradient><inkscape:perspective
   id="perspective3789"
   inkscape:persp3d-origin="0.5 : 0.33333333 : 1"
   inkscape:vp_z="1 : 0.5 : 1"
   inkscape:vp_y="0 : 1000 : 0"
   inkscape:vp_x="0 : 0.5 : 1"
   sodipodi:type="inkscape:persp3d" /><linearGradient
   y2="-57.139297"
   x2="-35.584976"
   y1="-46.334759"
   x1="-45.430847"
   gradientTransform="matrix(0.9948,0.1014,0.1014,-0.9948,88.9338,-31.8961)"
   gradientUnits="userSpaceOnUse"
   id="linearGradient3218-6"
   xlink:href="#path2428_1_-34"
   inkscape:collect="always" /><linearGradient
   gradientTransform="matrix(0.9948,0.1014,0.1014,-0.9948,58.9338,-31.8961)"
   y2="-58.5979"
   x2="-32.297298"
   y1="-49.6968"
   x1="-43.2197"
   gradientUnits="userSpaceOnUse"
   id="path2428_1_-34"><stop
     id="stop10-7"
     style="stop-color:#e0e0e0;stop-opacity:1;"
     offset="0" /><stop
     id="stop12-6"
     style="stop-color:#373737;stop-opacity:1;"
     offset="1" /></linearGradient><inkscape:perspective
   id="perspective3850"
   inkscape:persp3d-origin="0.5 : 0.33333333 : 1"
   inkscape:vp_z="1 : 0.5 : 1"
   inkscape:vp_y="0 : 1000 : 0"
   inkscape:vp_x="0 : 0.5 : 1"
   sodipodi:type="inkscape:persp3d" /><linearGradient
   y2="-57.139297"
   x2="-35.584976"
   y1="-46.334759"
   x1="-45.430847"
   gradientTransform="matrix(0.9948,0.1014,0.1014,-0.9948,118.9338,-31.8961)"
   gradientUnits="userSpaceOnUse"
   id="linearGradient3218-6-3"
   xlink:href="#path2428_1_-34-4"
   inkscape:collect="always" /><linearGradient
   gradientTransform="matrix(0.9948,0.1014,0.1014,-0.9948,58.9338,-31.8961)"
   y2="-58.5979"
   x2="-32.297298"
   y1="-49.6968"
   x1="-43.2197"
   gradientUnits="userSpaceOnUse"
   id="path2428_1_-34-4"><stop
     id="stop10-7-6"
     style="stop-color:#e0e0e0;stop-opacity:1;"
     offset="0" /><stop
     id="stop12-6-2"
     style="stop-color:#373737;stop-opacity:1;"
     offset="1" /></linearGradient><inkscape:perspective
   id="perspective3948"
   inkscape:persp3d-origin="0.5 : 0.33333333 : 1"
   inkscape:vp_z="1 : 0.5 : 1"
   inkscape:vp_y="0 : 1000 : 0"
   inkscape:vp_x="0 : 0.5 : 1"
   sodipodi:type="inkscape:persp3d" /><linearGradient
   y2="-57.139297"
   x2="-35.584976"
   y1="-46.334759"
   x1="-45.430847"
   gradientTransform="matrix(0.9948,0.1014,0.1014,-0.9948,148.9338,-31.8961)"
   gradientUnits="userSpaceOnUse"
   id="linearGradient3218-6-3-1"
   xlink:href="#path2428_1_-34-4-2"
   inkscape:collect="always" /><linearGradient
   gradientTransform="matrix(0.9948,0.1014,0.1014,-0.9948,58.9338,-31.8961)"
   y2="-58.5979"
   x2="-32.297298"
   y1="-49.6968"
   x1="-43.2197"
   gradientUnits="userSpaceOnUse"
   id="path2428_1_-34-4-2"><stop
     id="stop10-7-6-0"
     style="stop-color:#e0e0e0;stop-opacity:1;"
     offset="0" /><stop
     id="stop12-6-2-1"
     style="stop-color:#373737;stop-opacity:1;"
     offset="1" /></linearGradient></defs>
<sodipodi:namedview
   width="30px"
   height="30px"
   id="base"
   showguides="true"
   pagecolor="#ffffff"
   inkscape:cy="19.465697"
   inkscape:cx="71.34808"
   inkscape:zoom="8"
   gridtolerance="10000"
   showgrid="false"
   borderopacity="1.0"
   bordercolor="#666666"
   inkscape:snap-global="true"
   inkscape:window-y="24"
   inkscape:window-x="1"
   inkscape:window-height="1000"
   inkscape:window-width="1679"
   inkscape:grid-points="true"
   inkscape:current-layer="text3633"
   inkscape:document-units="px"
   inkscape:pageshadow="2"
   inkscape:pageopacity="0.0"
   inkscape:window-maximized="0">
	<inkscape:grid
   type="xygrid"
   id="grid2395"
   empspacing="5"
   visible="true"
   enabled="true"
   snapvisiblegridlinesonly="true" />
</sodipodi:namedview>
<polygon
   style="fill:#427bc3"
   points="16,12.5 22,12.5 22,12.5 "
   id="rect3465" />
<g
   inkscape:groupmode="layer"
   id="layer1"
   inkscape:label="black_background" /><g
   inkscape:groupmode="layer"
   id="layer2"
   inkscape:label="stars"
   style="display:inline"><rect
     style="color:#000000;fill:#ffffff;fill-opacity:1;fill-rule:nonzero;stroke:none;stroke-width:0.30000001;marker:none;visibility:visible;display:inline;overflow:visible;enable-background:accumulate"
     id="rect3744"
     width="18.07069"
     height="4.0127206"
     x="119.87285"
     y="12.834166" /><rect
     style="color:#000000;fill:#ffffff;fill-opacity:1;fill-rule:nonzero;stroke:none;stroke-width:0.30000001;marker:none;visibility:visible;display:inline;overflow:visible;enable-background:accumulate"
     id="rect3742"
     width="4.0202866"
     height="18.007797"
     x="126.88173"
     y="5.7885885" /><path
     style="fill:#ffffff;fill-opacity:1;stroke:none;display:inline"
     d="M 14.974021,1.6037673 10.73812,10.270486 c -0.0392,0.08275 -0.106714,0.149182 -0.189472,0.186205 -0.02287,0.01089 -0.04682,0.02069 -0.07078,0.02613 l -9.4768752,1.360062 6.877622,6.687061 c 0.091469,0.09256 0.1295816,0.225406 0.1001807,0.35281 L 6.3661051,28.33023 14.860775,23.860211 c 0.107802,-0.05444 0.234117,-0.05336 0.341921,0 l 8.47289,4.455862 -1.633381,-9.469253 c -0.02178,-0.11978 0.01743,-0.245006 0.102363,-0.33212 l 6.875444,-6.721906 -9.474697,-1.341551 c -0.12196,-0.01634 -0.229763,-0.09038 -0.287476,-0.200361 L 14.974021,1.6037673 z"
     id="path2428-4-8" /><path
     style="fill:url(#linearGradient3218);fill-opacity:1;stroke:#000000;stroke-width:0.30000001;stroke-miterlimit:4;stroke-opacity:1;stroke-dasharray:none"
     d="m 14.977,2.788 -3.89,7.959 c -0.036,0.076 -0.098,0.137 -0.174,0.171 -0.021,0.01 -0.043,0.019 -0.065,0.024 l -8.703,1.249 6.316,6.141 c 0.084,0.085 0.119,0.207 0.092,0.324 l -1.481,8.676 7.801,-4.105 c 0.099,-0.05 0.215,-0.049 0.314,0 l 7.781,4.092 -1.5,-8.696 c -0.02,-0.11 0.016,-0.225 0.094,-0.305 l 6.314,-6.173 -8.701,-1.232 C 19.063,10.898 18.964,10.83 18.911,10.729 L 14.977,2.788 z"
     id="path2428-4" /><g
     style="font-size:37.43058395px;font-style:normal;font-variant:normal;font-weight:normal;font-stretch:normal;fill:url(#linearGradient3684);fill-opacity:1;stroke:none;display:inline;font-family:DejaVu Serif;-inkscape-font-specification:DejaVu Serif"
     id="text3633"
     transform="matrix(1.2245423,0,0,1.2245423,73.644182,-3.9917374)"><path
       d="m 46.416154,8.3360248 0,5.7461792 5.724247,0 0,2.587974 -5.724247,0 0,5.746179 -2.609906,0 0,-5.746179 -5.724247,0 0,-2.587974 5.724247,0 0,-5.7461792 2.609906,0"
       style="font-size:22.45834922999999961px;font-weight:bold;fill:#7d7d7d;fill-opacity:1;stroke:#000000;stroke-width:0.20000000000000001;stroke-miterlimit:4;stroke-opacity:1;stroke-dasharray:none;font-family:DejaVu Sans;-inkscape-font-specification:DejaVu Sans Bold"
       id="path3638" /></g><polygon
     style="fill:#427bc3;display:inline"
     points="16,12.5 22,12.5 22,12.5 "
     id="rect3465-6"
     transform="translate(30,0)" /><path
     style="fill:#ffffff;fill-opacity:1;stroke:none;display:inline"
     d="m 44.974021,1.603767 -4.235901,8.666719 c -0.0392,0.08275 -0.106714,0.149182 -0.189472,0.186205 -0.02287,0.01089 -0.04682,0.02069 -0.07078,0.02613 l -9.476875,1.360062 6.877622,6.687061 c 0.09147,0.09256 0.129581,0.225406 0.100181,0.35281 l -1.612691,9.447476 8.49467,-4.470019 c 0.107802,-0.05444 0.234117,-0.05336 0.341921,0 l 8.47289,4.455862 -1.633381,-9.469253 c -0.02178,-0.11978 0.01743,-0.245006 0.102363,-0.33212 l 6.875444,-6.721906 -9.474697,-1.341551 c -0.12196,-0.01634 -0.229763,-0.09038 -0.287476,-0.200361 L 44.974021,1.603767 z"
     id="path2428-4-8-2" /><path
     style="fill:url(#linearGradient3218-6);fill-opacity:1;stroke:#000000;stroke-width:0.30000001;stroke-miterlimit:4;stroke-opacity:1;stroke-dasharray:none;display:inline"
     d="M 44.977,2.7879997 41.087,10.747 c -0.036,0.076 -0.098,0.137 -0.174,0.171 -0.021,0.01 -0.043,0.019 -0.065,0.024 l -8.703,1.249 6.316,6.141 c 0.084,0.085 0.119,0.207 0.092,0.324 l -1.481,8.676 7.801,-4.105 c 0.099,-0.05 0.215,-0.049 0.314,0 l 7.781,4.092 -1.5,-8.696 c -0.02,-0.11 0.016,-0.225 0.094,-0.305 l 6.314,-6.173 -8.701,-1.232 C 49.063,10.898 48.964,10.83 48.911,10.729 L 44.977,2.7879997 z"
     id="path2428-4-3" /><polygon
     style="fill:#427bc3;display:inline"
     points="16,12.5 22,12.5 22,12.5 "
     id="rect3465-6-2"
     transform="translate(60,0)" /><path
     style="fill:#ffffff;fill-opacity:1;stroke:none;display:inline"
     d="m 74.974021,1.603767 -4.235901,8.666719 c -0.0392,0.08275 -0.106714,0.149182 -0.189472,0.186205 -0.02287,0.01089 -0.04682,0.02069 -0.07078,0.02613 l -9.476875,1.360062 6.877622,6.687061 c 0.09147,0.09256 0.129581,0.225406 0.100181,0.35281 l -1.612691,9.447476 8.49467,-4.470019 c 0.107802,-0.05444 0.234117,-0.05336 0.341921,0 l 8.47289,4.455862 -1.633381,-9.469253 c -0.02178,-0.11978 0.01743,-0.245006 0.102363,-0.33212 l 6.875444,-6.721906 -9.474697,-1.341551 c -0.12196,-0.01634 -0.229763,-0.09038 -0.287476,-0.200361 L 74.974021,1.603767 z"
     id="path2428-4-8-2-1" /><path
     style="fill:url(#linearGradient3218-6-3);fill-opacity:1;stroke:#000000;stroke-width:0.30000001;stroke-miterlimit:4;stroke-opacity:1;stroke-dasharray:none;display:inline"
     d="M 74.977,2.7879997 71.087,10.747 c -0.036,0.076 -0.098,0.137 -0.174,0.171 -0.021,0.01 -0.043,0.019 -0.065,0.024 l -8.703,1.249 6.316,6.141 c 0.084,0.085 0.119,0.207 0.092,0.324 l -1.481,8.676 7.801,-4.105 c 0.099,-0.05 0.215,-0.049 0.314,0 l 7.781,4.092 -1.5,-8.696 c -0.02,-0.11 0.016,-0.225 0.094,-0.305 l 6.314,-6.173 -8.701,-1.232 C 79.063,10.898 78.964,10.83 78.911,10.729 L 74.977,2.7879997 z"
     id="path2428-4-3-9" /><polygon
     style="fill:#427bc3;display:inline"
     points="16,12.5 22,12.5 22,12.5 "
     id="rect3465-6-2-3"
     transform="translate(90,0)" /><path
     style="fill:#ffffff;fill-opacity:1;stroke:none;display:inline"
     d="m 104.97402,1.603767 -4.2359,8.666719 c -0.0392,0.08275 -0.10671,0.149182 -0.18947,0.186205 -0.0229,0.01089 -0.0468,0.02069 -0.0708,0.02613 l -9.476877,1.360062 6.877622,6.687061 c 0.09147,0.09256 0.129581,0.225406 0.100181,0.35281 l -1.612691,9.447476 8.494675,-4.470019 c 0.1078,-0.05444 0.23411,-0.05336 0.34192,0 l 8.47289,4.455862 -1.63338,-9.469253 c -0.0218,-0.11978 0.0174,-0.245006 0.10236,-0.33212 l 6.87544,-6.721906 -9.47469,-1.341551 c -0.12196,-0.01634 -0.22977,-0.09038 -0.28748,-0.200361 l -4.28382,-8.647115 z"
     id="path2428-4-8-2-1-3" /><path
     style="fill:url(#linearGradient3218-6-3-1);fill-opacity:1;stroke:#000000;stroke-width:0.30000001;stroke-miterlimit:4;stroke-opacity:1;stroke-dasharray:none;display:inline"
     d="M 104.977,2.7879997 101.087,10.747 c -0.036,0.076 -0.098,0.137 -0.174,0.171 -0.021,0.01 -0.043,0.019 -0.065,0.024 l -8.703,1.249 6.316,6.141 c 0.084,0.085 0.119,0.207 0.092,0.324 l -1.481,8.676 7.801,-4.105 c 0.099,-0.05 0.215,-0.049 0.314,0 l 7.781,4.092 -1.5,-8.696 c -0.02,-0.11 0.016,-0.225 0.094,-0.305 l 6.314,-6.173 -8.701,-1.232 c -0.112,-0.015 -0.211,-0.083 -0.264,-0.184 l -3.934,-7.9410003 z"
     id="path2428-4-3-9-3" /></g></svg>