<?xml version="1.0" encoding="utf-8"?>
<!-- Generator: Adobe Illustrator 13.0.2, SVG Export Plug-In . SVG Version: 6.00 Build 14948)  -->
<!DOCTYPE svg PUBLIC "-//W3C//DTD SVG 1.0//EN" "http://www.w3.org/TR/2001/REC-SVG-20010904/DTD/svg10.dtd">
<svg version="1.0"
	 id="svg2" xmlns:sodipodi="http://sodipodi.sourceforge.net/DTD/sodipodi-0.dtd" xmlns:inkscape="http://www.inkscape.org/namespaces/inkscape" xmlns:dc="http://purl.org/dc/elements/1.1/" xmlns:cc="http://creativecommons.org/ns#" xmlns:rdf="http://www.w3.org/1999/02/22-rdf-syntax-ns#" xmlns:svg="http://www.w3.org/2000/svg" sodipodi:version="0.32" sodipodi:modified="TRUE" inkscape:export-ydpi="45" inkscape:export-xdpi="45" sodipodi:docname="icon_star.svg" sodipodi:docbase="D:\gfx" inkscape:version="0.46" inkscape:export-filename="D:\proj\icons\released\icon_star.png" inkscape:output_extension="org.inkscape.output.svg.inkscape"
	 xmlns="http://www.w3.org/2000/svg" xmlns:xlink="http://www.w3.org/1999/xlink" x="0px" y="0px" width="30px" height="30px"
	 viewBox="0 0 30 30" enable-background="new 0 0 30 30" xml:space="preserve">
<g>
	<g>
		<path fill="#FFFFFF" stroke="#BF5A24" stroke-width="0.75" d="M19.529,2.069c-3.234-1.374-6.346-1.444-6.943-0.158
			c-0.334,0.719,0.189,1.71,1.283,2.685l-3.371,7.681c0,0-2.812-0.117-3.924,1.813c-1.113,1.936,0.234,2.988,0.703,3.398
			c-0.001,0,0.92,1.023,3.005,1.996l-2.963,9.449l4.816-8.726c1.189,0.384,2.613,0.702,4.303,0.865
			c0.621,0.062,2.314,0.305,2.947-1.834c0.631-2.142-1.395-4.095-1.395-4.095l3.242-7.387c1.555,0.149,2.73-0.139,3.078-0.88
			C24.904,5.597,22.766,3.44,19.529,2.069z"/>
	</g>
	<g>
		<path fill="none" stroke="#BF5A24" stroke-width="0.75" stroke-linecap="round" stroke-linejoin="round" d="M19.529,2.069
			c-3.234-1.374-6.346-1.444-6.943-0.158c-0.334,0.719,0.189,1.71,1.283,2.685l-3.371,7.681c0,0-2.812-0.117-3.924,1.813
			c-1.113,1.936,0.234,2.988,0.703,3.398c-0.001,0,0.92,1.023,3.005,1.996l-2.963,9.449l4.816-8.726
			c1.189,0.384,2.613,0.702,4.303,0.865c0.621,0.062,2.314,0.305,2.947-1.834c0.631-2.142-1.395-4.095-1.395-4.095l3.242-7.387
			c1.555,0.149,2.73-0.139,3.078-0.88C24.904,5.597,22.766,3.44,19.529,2.069z"/>
	</g>
</g>
<sodipodi:namedview  height="30px" width="30px" id="base" showgrid="false" inkscape:zoom="19.021172" borderopacity="1.0" showguides="true" pagecolor="#ffffff" bordercolor="#666666" inkscape:cy="13.102534" inkscape:cx="9.9653605" gridtolerance="10000" inkscape:snap-global="true" inkscape:window-y="20" inkscape:window-x="1" inkscape:window-height="1003" inkscape:window-width="1679" inkscape:grid-points="true" inkscape:current-layer="layer1" inkscape:document-units="px" inkscape:pageshadow="2" inkscape:pageopacity="0.0">
	<inkscape:grid  type="xygrid" id="grid2395"></inkscape:grid>
</sodipodi:namedview>
<g>
	
		<linearGradient id="SVGID_1_" gradientUnits="userSpaceOnUse" x1="-555.3315" y1="2312.9053" x2="-553.9247" y2="2313.4915" gradientTransform="matrix(1 0 0 1 564 -2289)">
		<stop  offset="0" style="stop-color:#FFFFFF"/>
		<stop  offset="1" style="stop-color:#000000"/>
	</linearGradient>
	<polygon fill="url(#SVGID_1_)" points="7.318,28.938 12.297,19.92 10.422,19.041 	"/>
	
		<linearGradient id="SVGID_2_" gradientUnits="userSpaceOnUse" x1="-4236.2666" y1="706.7207" x2="-4245.8159" y2="701.801" gradientTransform="matrix(-0.6898 -0.724 -0.724 0.6898 -2402.6819 -3539.5129)">
		<stop  offset="0" style="stop-color:#D97A36"/>
		<stop  offset="1" style="stop-color:#FBB03B"/>
	</linearGradient>
	<path fill="url(#SVGID_2_)" d="M16.438,21.08c0.621,0.059,2.313,0.303,2.945-1.836c0.633-2.141-1.393-4.094-1.393-4.094
		c-0.395,1.026-2.391,1.217-4.461,0.424c-2.068-0.793-3.426-2.27-3.031-3.297c0,0-2.812-0.115-3.924,1.815
		c-1.113,1.934,0.234,2.986,0.703,3.396C7.275,17.492,9.9,20.449,16.438,21.08z"/>
	
		<linearGradient id="SVGID_3_" gradientUnits="userSpaceOnUse" x1="-356.2388" y1="1537.7227" x2="-363.8967" y2="1533.7778" gradientTransform="matrix(1 0 0 1 376 -1526)">
		<stop  offset="0" style="stop-color:#D97A36"/>
		<stop  offset="1" style="stop-color:#FBB03B"/>
	</linearGradient>
	<path fill="url(#SVGID_3_)" d="M17.99,15.15c-0.395,1.026-2.391,1.217-4.461,0.424c-2.068-0.793-3.426-2.27-3.031-3.297l4.1-9.342
		c-0.395,1.027,0.964,2.503,3.031,3.296c2.07,0.793,4.066,0.604,4.461-0.424L17.99,15.15z"/>
	
		<linearGradient id="SVGID_4_" gradientUnits="userSpaceOnUse" x1="161.1338" y1="1571.6094" x2="153.2454" y2="1567.5454" gradientTransform="matrix(0.914 0.4056 -0.4056 0.914 511.3918 -1493.9607)">
		<stop  offset="0" style="stop-color:#D97A36"/>
		<stop  offset="1" style="stop-color:#FBB03B"/>
	</linearGradient>
	<path fill="url(#SVGID_4_)" d="M24.311,6.884c-0.6,1.286-3.707,1.215-6.941-0.157c-3.236-1.374-5.377-3.529-4.779-4.815
		c0.597-1.286,3.707-1.216,6.939,0.158C22.766,3.441,24.904,5.598,24.311,6.884z"/>
</g>
<sodipodi:namedview  height="30px" width="30px" id="base" showgrid="false" inkscape:zoom="19.021172" borderopacity="1.0" showguides="true" pagecolor="#ffffff" bordercolor="#666666" inkscape:cy="13.102534" inkscape:cx="9.9653605" gridtolerance="10000" inkscape:snap-global="true" inkscape:window-y="20" inkscape:window-x="1" inkscape:window-height="1003" inkscape:window-width="1679" inkscape:grid-points="true" inkscape:current-layer="layer1" inkscape:document-units="px" inkscape:pageshadow="2" inkscape:pageopacity="0.0">
	<inkscape:grid  type="xygrid" id="grid2395"></inkscape:grid>
</sodipodi:namedview>
<sodipodi:namedview  height="30px" width="30px" id="base" showgrid="false" inkscape:zoom="19.021172" borderopacity="1.0" showguides="true" pagecolor="#ffffff" bordercolor="#666666" inkscape:cy="13.102534" inkscape:cx="9.9653605" gridtolerance="10000" inkscape:snap-global="true" inkscape:window-y="20" inkscape:window-x="1" inkscape:window-height="1003" inkscape:window-width="1679" inkscape:grid-points="true" inkscape:current-layer="layer1" inkscape:document-units="px" inkscape:pageshadow="2" inkscape:pageopacity="0.0">
	<inkscape:grid  type="xygrid" id="grid2395"></inkscape:grid>
</sodipodi:namedview>
<sodipodi:namedview  height="30px" width="30px" id="base" showgrid="false" inkscape:zoom="19.021172" borderopacity="1.0" showguides="true" pagecolor="#ffffff" bordercolor="#666666" inkscape:cy="13.102534" inkscape:cx="9.9653605" gridtolerance="10000" inkscape:snap-global="true" inkscape:window-y="20" inkscape:window-x="1" inkscape:window-height="1003" inkscape:window-width="1679" inkscape:grid-points="true" inkscape:current-layer="layer1" inkscape:document-units="px" inkscape:pageshadow="2" inkscape:pageopacity="0.0">
	<inkscape:grid  type="xygrid" id="grid2395"></inkscape:grid>
</sodipodi:namedview>
</svg>
