<?xml version="1.0" encoding="UTF-8" standalone="no"?>
<!-- Created with Inkscape (http://www.inkscape.org/) -->

<svg
   xmlns:dc="http://purl.org/dc/elements/1.1/"
   xmlns:cc="http://creativecommons.org/ns#"
   xmlns:rdf="http://www.w3.org/1999/02/22-rdf-syntax-ns#"
   xmlns:svg="http://www.w3.org/2000/svg"
   xmlns="http://www.w3.org/2000/svg"
   xmlns:xlink="http://www.w3.org/1999/xlink"
   xmlns:sodipodi="http://sodipodi.sourceforge.net/DTD/sodipodi-0.dtd"
   xmlns:inkscape="http://www.inkscape.org/namespaces/inkscape"
   height="128"
   id="svg11300"
   inkscape:export-filename="/home/vishnoo/Desktop/emblem-unreadable1.png"
   inkscape:export-xdpi="90.000000"
   inkscape:export-ydpi="90.000000"
   inkscape:output_extension="org.inkscape.output.svg.inkscape"
   inkscape:version="0.46+devel r22260"
   sodipodi:docname="emblem-unreadable.svg"
   sodipodi:version="0.32"
   style="display:inline;enable-background:new"
   version="1.0"
   width="128">
  <title
     id="title4119">Breathe Icon Theme computer</title>
  <defs
     id="defs3">
    <linearGradient
       id="linearGradient3302">
      <stop
         id="stop3304"
         offset="0"
         style="stop-color:#ff9393;stop-opacity:1;" />
      <stop
         id="stop3306"
         offset="1"
         style="stop-color:#950000;stop-opacity:1;" />
    </linearGradient>
    <linearGradient
       id="linearGradient3270">
      <stop
         id="stop3272"
         offset="0"
         style="stop-color:#8e0000;stop-opacity:1;" />
      <stop
         id="stop3274"
         offset="1"
         style="stop-color:#7e0000;stop-opacity:1;" />
    </linearGradient>
    <linearGradient
       id="linearGradient3242">
      <stop
         id="stop3244"
         offset="0"
         style="stop-color:#ce1919;stop-opacity:1;" />
      <stop
         id="stop3246"
         offset="1"
         style="stop-color:#e73838;stop-opacity:1;" />
    </linearGradient>
    <linearGradient
       gradientUnits="userSpaceOnUse"
       id="linearGradient3248"
       inkscape:collect="always"
       x1="91.695564"
       x2="46.431141"
       xlink:href="#linearGradient3242"
       y1="120.51822"
       y2="17.16164" />
    <linearGradient
       gradientUnits="userSpaceOnUse"
       id="linearGradient3268"
       inkscape:collect="always"
       x1="10.736336"
       x2="124.38779"
       xlink:href="#linearGradient3270"
       y1="68.01416"
       y2="68.01416" />
    <radialGradient
       cx="23.452066"
       cy="26.206148"
       fx="23.452066"
       fy="26.206148"
       gradientTransform="matrix(1.0000001,-1.1309123,0.8472065,0.7491355,-21.740861,27.942313)"
       gradientUnits="userSpaceOnUse"
       id="radialGradient3308"
       inkscape:collect="always"
       r="7.7027783"
       xlink:href="#linearGradient3302" />
    <radialGradient
       cx="30.827892"
       cy="84.148384"
       fx="30.827892"
       fy="84.148384"
       gradientTransform="matrix(1,0,0,0.8726313,-4.3103448,3.605798)"
       gradientUnits="userSpaceOnUse"
       id="radialGradient3318"
       inkscape:collect="always"
       r="19.227224"
       xlink:href="#linearGradient3302" />
    <radialGradient
       cx="93.780174"
       cy="29.085732"
       fx="93.780174"
       fy="29.085732"
       gradientTransform="matrix(1,0,0,0.8666394,0,4.6325902)"
       gradientUnits="userSpaceOnUse"
       id="radialGradient3328"
       inkscape:collect="always"
       r="20.523726"
       xlink:href="#linearGradient3302" />
  </defs>
  <sodipodi:namedview
     bordercolor="#666666"
     borderopacity="0.25490196"
     fill="#f57900"
     gridtolerance="12"
     guidetolerance="13"
     height="300px"
     id="base"
     inkscape:current-layer="layer6"
     inkscape:cx="34.834571"
     inkscape:cy="70.200247"
     inkscape:document-units="px"
     inkscape:grid-bbox="true"
     inkscape:guide-bbox="true"
     inkscape:pageopacity="0.0"
     inkscape:pageshadow="2"
     inkscape:showpageshadow="false"
     inkscape:snap-bbox="true"
     inkscape:snap-nodes="false"
     inkscape:window-height="1154"
     inkscape:window-maximized="1"
     inkscape:window-width="1920"
     inkscape:window-x="0"
     inkscape:window-y="23"
     inkscape:zoom="2.8237469"
     objecttolerance="7"
     pagecolor="#ffffff"
     showgrid="false"
     showguides="true"
     stroke="#ef2929"
     width="400px">
    <inkscape:grid
       empspacing="5"
       enabled="true"
       id="grid5883"
       spacingx="1px"
       spacingy="1px"
       type="xygrid"
       visible="true" />
  </sodipodi:namedview>
  <metadata
     id="metadata4">
    <rdf:RDF>
      <cc:Work
         rdf:about="">
        <dc:format>image/svg+xml</dc:format>
        <dc:type
           rdf:resource="http://purl.org/dc/dcmitype/StillImage" />
        <dc:creator>
          <cc:Agent>
            <dc:title>Breathe Icon Team</dc:title>
          </cc:Agent>
        </dc:creator>
        <dc:source />
        <cc:license
           rdf:resource="http://creativecommons.org/licenses/by-sa/3.0/" />
        <dc:title>Breathe Icon Theme icon</dc:title>
        <dc:subject>
          <rdf:Bag />
        </dc:subject>
        <dc:date />
        <dc:rights>
          <cc:Agent>
            <dc:title />
          </cc:Agent>
        </dc:rights>
        <dc:publisher>
          <cc:Agent>
            <dc:title />
          </cc:Agent>
        </dc:publisher>
        <dc:identifier />
        <dc:relation />
        <dc:language />
        <dc:coverage />
        <dc:description />
        <dc:contributor>
          <cc:Agent>
            <dc:title>Jakub Steiner, Cory Kontros, Oxygen and Breathe icon teams</dc:title>
          </cc:Agent>
        </dc:contributor>
      </cc:Work>
      <cc:License
         rdf:about="http://creativecommons.org/licenses/by-sa/3.0/">
        <cc:permits
           rdf:resource="http://creativecommons.org/ns#Reproduction" />
        <cc:permits
           rdf:resource="http://creativecommons.org/ns#Distribution" />
        <cc:requires
           rdf:resource="http://creativecommons.org/ns#Notice" />
        <cc:requires
           rdf:resource="http://creativecommons.org/ns#Attribution" />
        <cc:permits
           rdf:resource="http://creativecommons.org/ns#DerivativeWorks" />
        <cc:requires
           rdf:resource="http://creativecommons.org/ns#ShareAlike" />
      </cc:License>
    </rdf:RDF>
  </metadata>
  <g
     id="layer1"
     inkscape:groupmode="layer"
     inkscape:label="emblems/emblem-unreadable"
     style="display:inline"
     transform="translate(-3,-4)">
    <rect
       height="256"
       id="256x256"
       inkscape:label="256x256"
       style="fill:#eeeeec;fill-opacity:1;fill-rule:nonzero;stroke:none;stroke-width:5;marker:none;visibility:visible;display:none;overflow:visible;enable-background:accumulate"
       width="256"
       x="26.5"
       y="32.823101" />
    <rect
       height="48"
       id="48x48"
       inkscape:label="48x48"
       style="fill:#eeeeec;fill-opacity:1;fill-rule:nonzero;stroke:none;stroke-width:5;marker:none;visibility:visible;display:none;overflow:visible;enable-background:accumulate"
       width="48"
       x="-35.5"
       y="32.823101" />
    <text
       id="text6091"
       sodipodi:linespacing="125%"
       style="font-size:56.11526489px;font-style:normal;font-variant:normal;font-weight:bold;font-stretch:normal;text-indent:0;text-align:start;text-decoration:none;line-height:125%;letter-spacing:normal;word-spacing:normal;text-transform:none;direction:ltr;block-progression:tb;writing-mode:lr-tb;text-anchor:start;fill:#2e3436;fill-opacity:1;fill-rule:nonzero;stroke:none;stroke-width:5;marker:none;visibility:visible;display:none;overflow:visible;enable-background:accumulate;font-family:Myriad"
       x="-418.41196"
       xml:space="preserve"
       y="34.084831"><tspan
         id="tspan6093"
         sodipodi:role="line"
         x="-418.41196"
         y="34.084831">audio-x-generic</tspan></text>
    <g
       id="layer6"
       inkscape:groupmode="layer"
       inkscape:label="plate"
       sodipodi:insensitive="true"
       style="display:none">
      <text
         id="text3734"
         inkscape:label="emblems"
         style="font-size:10px;font-style:normal;font-weight:normal;fill:#000000;fill-opacity:1;stroke:none;font-family:Bitstream Vera Sans"
         x="40"
         xml:space="preserve"
         y="19"><tspan
           id="tspan3736"
           sodipodi:role="line"
           x="40"
           y="19">emblems</tspan></text>
      <text
         id="text3738"
         inkscape:label="emblem-unreadable"
         style="font-size:10px;font-style:normal;font-weight:normal;fill:#000000;fill-opacity:1;stroke:none;font-family:Bitstream Vera Sans"
         x="12"
         xml:space="preserve"
         y="127"><tspan
           id="tspan3740"
           sodipodi:role="line"
           x="12"
           y="127">emblem-unreadable</tspan></text>
    </g>
    <g
       id="Livello_1"
       transform="translate(387.11439,42.495045)" />
    <g
       id="g3290"
       transform="translate(443.11439,59.884345)" />
    <g
       id="g7148"
       transform="matrix(0.1956571,0,0,0.1956571,345.26471,19.402885)" />
    <g
       id="g7555"
       transform="matrix(0.1333333,0,0,0.1333333,319.90372,105.99052)" />
    <g
       id="g9283"
       transform="matrix(1.0666666,0,0,1.0666666,384.44667,40.470571)" />
    <path
       d="M 10.372002,34.44921 48.114562,67.581992 10.253314,100.91817 26.501656,119.46024 67.418008,84.004327 108.05369,119.25061 124.46401,101.00288 86.433344,67.293881 124.46401,34.161099 107.92051,15.627644 67.418008,51.159657 26.657633,15.727344 10.372002,34.44921 z"
       id="path3240"
       sodipodi:nodetypes="ccccccccccccc"
       style="fill:url(#linearGradient3248);fill-opacity:1;fill-rule:evenodd;stroke:#951212;stroke-width:1px;stroke-linecap:butt;stroke-linejoin:miter;stroke-opacity:1" />
    <path
       d="M 11.236336,34.737321 49.555118,67.581992 11.015954,100.88406 27.111855,118.4312 67.418008,83.156795 107.93499,118.65015 123.45676,100.85996 84.992788,67.293881 123.31157,34.161099 108.12391,16.37329 67.418008,52.312102 26.803685,16.733737 11.236336,34.737321 z"
       id="path3252"
       sodipodi:nodetypes="ccccccccccccc"
       style="fill:none;stroke:url(#linearGradient3268);stroke-width:1px;stroke-linecap:butt;stroke-linejoin:miter;stroke-opacity:1" />
    <path
       d="M 11.812557,34.304022 26.387759,17.35631"
       id="path3290"
       sodipodi:nodetypes="cc"
       style="fill:none;stroke:url(#radialGradient3308);stroke-width:1px;stroke-linecap:butt;stroke-linejoin:miter;stroke-opacity:1" />
    <path
       d="M 11.921504,100.65429 49.555117,67.870103"
       id="path3310"
       sodipodi:nodetypes="cc"
       style="fill:none;stroke:url(#radialGradient3318);stroke-width:1px;stroke-linecap:butt;stroke-linejoin:miter;stroke-opacity:1" />
    <path
       d="M 67.706119,52.02399 105.5984,19.390307"
       id="path3320"
       sodipodi:nodetypes="cc"
       style="fill:none;stroke:url(#radialGradient3328);stroke-width:1px;stroke-linecap:butt;stroke-linejoin:miter;stroke-opacity:1" />
    <g
       id="g3330"
       transform="matrix(0.4,0,0,0.4,285.76345,17.384519)" />
    <g
       id="g3332"
       transform="matrix(0.4,0,0,0.4,308.16345,24.340239)" />
    <g
       id="g3334"
       transform="matrix(0.07826284,0,0,0.07826284,269.02358,8.1476546)" />
    <g
       id="g3336"
       transform="matrix(0.05333332,0,0,0.05333332,258.87918,42.782708)" />
    <g
       id="g3338"
       transform="matrix(0.4266666,0,0,0.4266666,284.69636,16.57473)" />
    <g
       id="g3362"
       transform="matrix(0.268,0,0,0.268,235.65969,64.238809)" />
    <g
       id="g3364"
       transform="matrix(0.268,0,0,0.268,250.66769,68.899142)" />
    <g
       id="g3366"
       transform="matrix(0.0524361,0,0,0.0524361,224.44398,58.05011)" />
    <g
       id="g3368"
       transform="matrix(0.03573332,0,0,0.03573332,217.64723,81.255596)" />
    <g
       id="g3370"
       transform="matrix(0.2858666,0,0,0.2858666,234.94474,63.696251)" />
    <g
       id="g3394"
       transform="matrix(0.201,0,0,0.201,210.24503,96.026329)" />
    <g
       id="g3396"
       transform="matrix(0.201,0,0,0.201,221.50103,99.521579)" />
    <g
       id="g3398"
       transform="matrix(0.03932708,0,0,0.03932708,201.83325,91.384805)" />
    <g
       id="g3400"
       transform="matrix(0.02679999,0,0,0.02679999,196.73569,108.78892)" />
    <g
       id="g3402"
       transform="matrix(0.2144,0,0,0.2144,209.70882,95.61941)" />
    <g
       id="g3426"
       transform="matrix(0.13065,0,0,0.13065,183.75938,120.78275)" />
    <g
       id="g3428"
       transform="matrix(0.13065,0,0,0.13065,191.07578,123.05466)" />
    <g
       id="g3430"
       transform="matrix(0.0255626,0,0,0.0255626,178.29172,117.76576)" />
    <g
       id="g3432"
       transform="matrix(0.01742,0,0,0.01742,174.97831,129.07843)" />
    <g
       id="g3434"
       transform="matrix(0.13936,0,0,0.13936,183.41084,120.51825)" />
    <g
       id="g3596"
       transform="matrix(0.4,0,0,0.4,285.79094,17.836931)" />
    <g
       id="g3598"
       transform="matrix(0.4,0,0,0.4,308.19094,24.792651)" />
    <g
       id="g3600"
       transform="matrix(0.07826284,0,0,0.07826284,269.05107,8.6000674)" />
    <g
       id="g3602"
       transform="matrix(0.05333332,0,0,0.05333332,258.90668,43.235121)" />
    <g
       id="g3604"
       transform="matrix(0.4266666,0,0,0.4266666,284.72386,17.027142)" />
    <g
       id="g3616"
       transform="matrix(0.16,0,0,0.16,245.25057,7.7927214)" />
    <g
       id="g3618"
       transform="matrix(0.16,0,0,0.16,254.21057,10.575009)" />
    <g
       id="g3620"
       transform="matrix(0.03130514,0,0,0.03130514,238.55462,4.0979754)" />
    <g
       id="g3622"
       transform="matrix(0.02133333,0,0,0.02133333,234.49686,17.951996)" />
    <g
       id="g3624"
       transform="matrix(0.1706666,0,0,0.1706666,244.82373,7.4688054)" />
    <g
       id="g3626"
       transform="matrix(0.1072,0,0,0.1072,225.20906,26.534437)" />
    <g
       id="g3628"
       transform="matrix(0.1072,0,0,0.1072,231.21226,28.39857)" />
    <g
       id="g3630"
       transform="matrix(0.02097444,0,0,0.02097444,220.72278,24.058957)" />
    <g
       id="g3632"
       transform="matrix(0.01429333,0,0,0.01429333,218.00408,33.341152)" />
    <g
       id="g3634"
       transform="matrix(0.1143466,0,0,0.1143466,224.92308,26.317414)" />
    <g
       id="g3646"
       transform="matrix(0.0804,0,0,0.0804,215.0432,39.249445)" />
    <g
       id="g3648"
       transform="matrix(0.0804,0,0,0.0804,219.5456,40.647545)" />
    <g
       id="g3650"
       transform="matrix(0.01573083,0,0,0.01573083,211.67849,37.392835)" />
    <g
       id="g3652"
       transform="matrix(0.01072,0,0,0.01072,209.63946,44.354481)" />
    <g
       id="g3654"
       transform="matrix(0.08576,0,0,0.08576,214.82872,39.086677)" />
    <g
       id="g3666"
       transform="matrix(0.05226,0,0,0.05226,204.44894,49.152015)" />
    <g
       id="g3668"
       transform="matrix(0.05226,0,0,0.05226,207.3755,50.060779)" />
    <g
       id="g3670"
       transform="matrix(0.01022504,0,0,0.01022504,202.26188,47.945219)" />
    <g
       id="g3672"
       transform="matrix(0.006968,0,0,0.006968,200.93651,52.470287)" />
    <g
       id="g3674"
       transform="matrix(0.055744,0,0,0.055744,204.30952,49.046215)" />
  </g>
</svg>
