<?xml version="1.0" encoding="UTF-8" standalone="no"?>
<!-- Generator: Adobe Illustrator 13.0.2, SVG Export Plug-In . SVG Version: 6.00 Build 14948)  -->

<svg
   xmlns:dc="http://purl.org/dc/elements/1.1/"
   xmlns:cc="http://creativecommons.org/ns#"
   xmlns:rdf="http://www.w3.org/1999/02/22-rdf-syntax-ns#"
   xmlns:svg="http://www.w3.org/2000/svg"
   xmlns="http://www.w3.org/2000/svg"
   xmlns:xlink="http://www.w3.org/1999/xlink"
   xmlns:sodipodi="http://sodipodi.sourceforge.net/DTD/sodipodi-0.dtd"
   xmlns:inkscape="http://www.inkscape.org/namespaces/inkscape"
   version="1.0"
   id="Layer_1"
   x="0px"
   y="0px"
   width="24"
   height="24"
   viewBox="0 0 24 24"
   enable-background="new 0 0 180 180"
   xml:space="preserve"
   inkscape:version="0.47 r22583"
   sodipodi:docname="shotwell.svg"><metadata
   id="metadata9"><rdf:RDF><cc:Work
       rdf:about=""><dc:format>image/svg+xml</dc:format><dc:type
         rdf:resource="http://purl.org/dc/dcmitype/StillImage" /><dc:title /></cc:Work></rdf:RDF></metadata><defs
   id="defs7"><linearGradient
     id="linearGradient3710"><stop
       style="stop-color:#c9332e;stop-opacity:1;"
       offset="0"
       id="stop3712" /><stop
       style="stop-color:#87231f;stop-opacity:1;"
       offset="1"
       id="stop3714" /></linearGradient><linearGradient
     id="linearGradient3665"><stop
       style="stop-color:#667f2e;stop-opacity:1;"
       offset="0"
       id="stop3667" /><stop
       style="stop-color:#94b641;stop-opacity:1;"
       offset="1"
       id="stop3669" /></linearGradient><linearGradient
     id="linearGradient3628"><stop
       style="stop-color:#099bd1;stop-opacity:1;"
       offset="0"
       id="stop3630" /><stop
       style="stop-color:#035fa9;stop-opacity:1;"
       offset="1"
       id="stop3632" /></linearGradient><linearGradient
     id="linearGradient3607"><stop
       style="stop-color:#fffbf7;stop-opacity:1;"
       offset="0"
       id="stop3609" /><stop
       style="stop-color:#fed697;stop-opacity:1;"
       offset="1"
       id="stop3611" /></linearGradient><linearGradient
     inkscape:collect="always"
     xlink:href="#linearGradient3628"
     id="linearGradient4849"
     gradientUnits="userSpaceOnUse"
     gradientTransform="matrix(0.94709495,0,0,0.99337445,107.10999,4.0351276)"
     x1="-43.661713"
     y1="60.388466"
     x2="-43.661713"
     y2="31.618958" /><radialGradient
     inkscape:collect="always"
     xlink:href="#linearGradient3607"
     id="radialGradient4851"
     gradientUnits="userSpaceOnUse"
     gradientTransform="matrix(0.82352939,-6.1355775e-8,5.2590677e-8,0.7058825,-29.1752,17.22328)"
     cx="-165.3261"
     cy="58.559208"
     fx="-165.3261"
     fy="58.559208"
     r="8.9683418" /><linearGradient
     inkscape:collect="always"
     xlink:href="#linearGradient3710"
     id="linearGradient4853"
     gradientUnits="userSpaceOnUse"
     gradientTransform="matrix(0.16838723,0,0,0.16838725,40.079373,-0.16517623)"
     x1="-124.5"
     y1="101.26834"
     x2="-124.5"
     y2="73.998131" /><linearGradient
     inkscape:collect="always"
     xlink:href="#linearGradient3665"
     id="linearGradient4859"
     gradientUnits="userSpaceOnUse"
     gradientTransform="matrix(1.025641,0,0,1.0126582,136.85898,-4.28481)"
     x1="-17.5"
     y1="22"
     x2="-17.5"
     y2="62.152832" /></defs><sodipodi:namedview
   pagecolor="#ffffff"
   bordercolor="#e7e7e7"
   borderopacity="1"
   objecttolerance="10"
   gridtolerance="10"
   guidetolerance="10"
   inkscape:pageopacity="0"
   inkscape:pageshadow="2"
   inkscape:window-width="1024"
   inkscape:window-height="719"
   id="namedview5"
   showgrid="false"
   inkscape:zoom="4"
   inkscape:cx="14.262976"
   inkscape:cy="-4.0941656"
   inkscape:window-x="1024"
   inkscape:window-y="24"
   inkscape:window-maximized="1"
   inkscape:current-layer="Layer_1"
   showguides="true"
   inkscape:guide-bbox="true"
   inkscape:snap-grids="false"
   inkscape:showpageshadow="false"><inkscape:grid
     type="xygrid"
     id="grid2819"
     empspacing="5"
     visible="true"
     enabled="true"
     snapvisiblegridlinesonly="true" /></sodipodi:namedview>

<rect
   ry="0"
   rx="0"
   y="1.4999686"
   x="9.5"
   height="14.000021"
   width="12"
   id="rect2823"
   style="fill:#ffffff;fill-opacity:1;stroke:#888a85;stroke-width:1.00000012;stroke-linecap:square;stroke-linejoin:miter;stroke-miterlimit:4;stroke-opacity:1;stroke-dasharray:none;stroke-dashoffset:0" /><g
   id="g3686"
   transform="matrix(0.1125,0,0,0.125,1.71875,0.68750003)"><rect
     y="18.5"
     x="82.5"
     height="80"
     width="80"
     id="rect3663"
     style="fill:url(#linearGradient4859);fill-opacity:1;stroke:none" /><path
     sodipodi:nodetypes="cssssccccccc"
     id="path3677"
     d="m 162.5,69.58583 c -2.28236,-1.229642 -4.57791,-5.41744 -7.58117,-4.432837 -0.78685,0.257961 -1.99733,1.357334 -2.75431,0.985074 -1.3901,-0.683607 -3.07858,-2.289088 -4.13145,-3.324628 -0.80496,-0.791701 -4.70948,0.165709 -5.8842,-0.123135 -3.46751,-0.852608 -6.66988,-3.146265 -8.26291,-6.279853 l -2.3787,-3.940301 c -1.72413,-0.890004 -3.25174,-1.970149 -4.56282,-1.970149 l 0,48 10.69739,0 24.85817,0 0,-28.914171 z"
     style="fill:#6a8430;fill-opacity:1;stroke:none" /><path
     sodipodi:nodetypes="csscccc"
     d="m 162.5,82.622687 c -3.33496,-0.219989 -5.59826,-0.201933 -8.62649,0.541512 -2.36305,0.580142 -3.51283,2.267732 -6.28066,2.558951 -3.82935,0.40291 -7.99575,0.09842 -11.75952,0.09842 l 0.13362,12.597917 26.53305,0.08051 0,-15.877312 z"
     style="fill:#526726;fill-opacity:1;stroke:none"
     id="path3681" /><path
     sodipodi:nodetypes="csscccc"
     d="m 162.5,93.500098 c -2.06783,0.286598 -2.97748,-3.761525 -5.12192,-2.872127 -2.1533,0.893061 -3.76922,2.389161 -6.30492,2.914995 -2.07742,0.4308 -4.65014,-0.342941 -6.35094,-0.128603 l 0,5.085637 17.77778,0 0,-4.999902 z"
     style="fill:#384619;fill-opacity:1;stroke:none"
     id="path3679" /></g><rect
   ry="0"
   rx="0"
   y="8.499979"
   x="6.5"
   height="14.000021"
   width="12"
   id="rect2821"
   style="fill:#ffffff;fill-opacity:1;stroke:#888a85;stroke-width:1;stroke-linecap:square;stroke-linejoin:miter;stroke-miterlimit:4;stroke-opacity:1;stroke-dasharray:none;stroke-dashoffset:0" /><g
   id="g4732"
   transform="matrix(0.74233577,0,0,0.74233656,-1.1273759,0.87261515)"><rect
     y="12.295481"
     x="10.948382"
     height="13.470979"
     width="13.470979"
     id="rect3700"
     style="fill:url(#linearGradient4853);fill-opacity:1;stroke:none" /><path
     sodipodi:nodetypes="cssssssssssssccccc"
     id="path3698"
     d="m 22.746535,19.053834 c 0.198966,-0.08701 0.392759,0.08835 0.48121,0.289058 0.01342,0.03047 -0.02041,0.121367 0,0.144532 0.06273,0.07116 0.189322,-0.132434 0.325522,0.176647 0.0858,0.194719 -0.254487,0.546307 -0.169838,0.642354 0.06335,0.07189 0.242053,-0.07864 0.297218,-0.01604 0.04007,0.04546 0.0063,0.308709 0.02831,0.321178 0.134217,0.07614 0.267055,-0.102667 0.325522,0.09635 0.05617,0.191212 -0.350926,0.215354 -0.22645,0.497826 0.02408,0.05462 0.39413,0.11681 0.479802,0.149211 0.01477,0.0056 0.04442,0.146464 0.0361,0.155907 -0.134993,0.153169 -0.176224,0.05489 -0.176224,0.353295 0,0.181733 0.184661,0.0168 0.268854,0.112343 0.0063,0.0071 5.6e-5,0.843438 5.6e-5,0.99572 l -5.6e-5,2.794243 -2.691384,-9e-6 0,-6.712605 1.021362,0 z"
     style="fill:#4e1413;fill-opacity:1;stroke:none" /></g><rect
   style="fill:#ffffff;fill-opacity:1;stroke:#888a85;stroke-width:1.00000012;stroke-linecap:square;stroke-linejoin:miter;stroke-miterlimit:4;stroke-opacity:1;stroke-dasharray:none;stroke-dashoffset:0"
   id="rect2817"
   width="14"
   height="16"
   x="1.5000001"
   y="4.5000005"
   rx="0"
   ry="0" /><g
   id="g3636"
   transform="matrix(0.11767575,0,0,0.12365028,0.76185377,1.5558495)"><rect
     y="35.941288"
     x="19.019604"
     height="97.047897"
     width="93.477203"
     id="rect3618"
     style="fill:url(#linearGradient4849);fill-opacity:1;stroke:none" /><path
     transform="matrix(1.5101535,0,0,1.4371859,298.43013,-28.000866)"
     d="m -156.8853,58.559208 c 0,4.661721 -3.77907,8.440792 -8.4408,8.440792 -4.66172,0 -8.44079,-3.779071 -8.44079,-8.440792 0,-4.661721 3.77907,-8.440792 8.44079,-8.440792 4.66173,0 8.4408,3.779071 8.4408,8.440792 z"
     sodipodi:ry="8.4407921"
     sodipodi:rx="8.4407921"
     sodipodi:cy="58.559208"
     sodipodi:cx="-165.3261"
     id="path2825"
     style="fill:url(#radialGradient4851);fill-opacity:1;stroke:none"
     sodipodi:type="arc" /><path
     sodipodi:nodetypes="csssssssssssssssssssssssssssssccssssssssccsssssssssssssssssssssccccc"
     id="path3615"
     d="m 25.001687,93.889677 c 0.911316,-0.506743 0.850357,-2.3054 2.209168,-1.801683 1.901206,0.704784 1.088581,1.128726 1.693696,1.801682 0.128025,0.142384 1.336983,0.198353 1.546421,0.08189 1.290536,-0.717609 1.428811,-2.440343 2.87192,-1.637895 0.77509,0.430994 0.782776,1.443802 1.251858,1.965473 0.572285,0.636442 1.657056,0.246064 2.135532,1.310315 0.408696,0.90903 -0.316283,2.35079 0.368201,3.112 0.06084,0.0676 1.602176,0.0398 1.620057,0 0.375268,-0.83469 -0.166368,-9.806135 0.147274,-10.154947 0.800902,-0.890693 2.36496,-0.486634 3.092835,-0.08189 0.850814,0.473098 2.39736,-1.5924 4.565622,0.818948 0.187913,0.208978 1.572247,0 1.840977,0 2.29394,0 4.124986,0.08234 6.112039,0.818947 0.135439,0.0502 0.567423,-0.106008 0.662742,0 0.554782,0.61697 -0.350598,2.558302 0.3682,3.357685 0.178561,0.198583 1.550798,0.04177 1.767331,0.08189 1.274699,0.236268 0.417431,-1.119379 0.957307,-1.719789 0.07499,-0.08338 0.612402,0 0.736398,0 0.596573,0 2.916669,-0.277812 3.313754,0.16379 0.05519,0.06139 -0.131734,0.275712 -0.147282,0.327579 -0.163445,0.545304 -0.267603,4.303477 0,4.749887 0.06463,0.10778 1.612418,1.71555 1.62006,1.71979 1.272108,0.70737 1.03375,-4.110354 1.178223,-4.913679 0.582646,-3.239845 -0.710646,-4.838944 2.798283,-5.814525 0.577837,-0.160657 0.867674,-0.900842 1.399142,-0.900842 0.310506,0 0.394248,-4.154349 0.58541,-4.154349 0.346514,0 0.454812,4.15007 0.874734,4.383572 1.811343,1.007207 1.397344,1.228836 1.706328,1.572462 0.109111,0.121336 1.703036,0.348342 2.061895,1.146525 0.48508,1.078928 0.220917,8.378506 0.220917,10.236847 l -0.0026,0.21108 c 0.02755,0.3772 -0.02605,0.75608 -0.02605,1.1292 0,0.50385 1.160028,0.0514 1.275727,-0.46327 0.06964,-0.30967 0.175313,-0.62543 0.208285,-0.95548 0.06366,-0.636731 -0.109767,-3.004971 0.286392,-3.445541 0.03557,-0.0396 0.12197,0.0226 0.156208,0.0289 0.66034,0.1224 1.307281,0.11582 1.978689,0.11582 0.338089,0 2.214979,0.25838 2.473355,-0.0289 0.183793,-0.2044 -0.02402,-1.16889 -0.05212,-1.41875 -0.133739,-1.189857 -0.05202,-2.445035 -0.05202,-3.648226 l -0.260336,-0.579082 c 0.324992,-1.036327 0.0053,-8.518315 0.624853,-9.207424 0.459311,-0.510798 0.677051,-0.492295 0.93727,-0.63699 1.029373,-0.572387 0.781067,-1.039801 0.781067,-2.258426 0,-0.897099 0.546294,-10.133954 0.781052,-10.133954 0.196926,0 0.833127,9.129019 0.833127,10.307681 0,0.252495 0.730508,2.028475 0.833135,2.142606 0.221701,0.246555 0.450224,0.4428 0.624843,0.636995 0.510577,0.567815 -0.195042,7.311171 0.312426,7.875531 0.284632,0.316538 0.695485,0.936855 1.093486,1.158165 0.456115,0.253626 0.853489,-0.249266 1.30176,0 0.641571,0.356746 1.34858,-0.474975 1.770404,0.463267 0.757395,1.684608 -0.104456,4.052877 0.624853,5.675017 0.08548,0.19006 0.363841,0.11581 0.5207,0.11581 2.157185,0 0.390534,-4.9222 1.145542,-6.601544 0.04749,-0.105472 6.386881,-0.07772 6.560931,0.115818 0.926132,1.029976 -0.102111,5.329836 0.416542,5.906646 0.167527,0.18629 1.48443,0 1.77041,0 0.30014,0 1.06443,0.43767 1.24969,0.23164 0.9455,-1.05151 2.25726,-2.203427 2.70767,-3.706138 0.1699,-0.56681 -0.26969,-1.458098 -0.52069,-1.737249 -0.33609,-0.373751 0,-2.963371 0,-3.590318 0,-5.010921 -0.87601,-8.40012 3.33251,-9.960231 l 0,50.843517 -84.979273,0 0,-34.973952 c 0.54743,-0.02803 1.511853,-0.07246 1.733112,-0.08189 z"
     style="fill:#01131a;fill-opacity:1;stroke:#01131a;stroke-width:8.29008293px;stroke-linecap:butt;stroke-linejoin:miter;stroke-opacity:1" /></g></svg>