<?xml version="1.0" encoding="UTF-8" standalone="no"?>
<!-- Created with Inkscape (http://www.inkscape.org/) -->

<svg
   xmlns:dc="http://purl.org/dc/elements/1.1/"
   xmlns:cc="http://creativecommons.org/ns#"
   xmlns:rdf="http://www.w3.org/1999/02/22-rdf-syntax-ns#"
   xmlns:svg="http://www.w3.org/2000/svg"
   xmlns="http://www.w3.org/2000/svg"
   xmlns:xlink="http://www.w3.org/1999/xlink"
   xmlns:sodipodi="http://sodipodi.sourceforge.net/DTD/sodipodi-0.dtd"
   xmlns:inkscape="http://www.inkscape.org/namespaces/inkscape"
   width="180"
   height="163.29721"
   viewBox="0 0 47.624999 43.205722"
   version="1.1"
   id="svg1962"
   inkscape:version="0.92.1 r15371"
   sodipodi:docname="shotwell.svg">
  <defs
     id="defs1956">
    <filter
       inkscape:collect="always"
       id="filter5562-3"
       style="color-interpolation-filters:sRGB">
      <feGaussianBlur
         inkscape:collect="always"
         stdDeviation="1.3642241"
         id="feGaussianBlur5564-0" />
    </filter>
    <filter
       inkscape:collect="always"
       id="filter5574-7"
       x="-0.14485998"
       width="1.2897201"
       y="-0.13481142"
       height="1.2696228"
       style="color-interpolation-filters:sRGB">
      <feGaussianBlur
         inkscape:collect="always"
         stdDeviation="9.2156237"
         id="feGaussianBlur5576-7" />
    </filter>
    <filter
       inkscape:collect="always"
       id="filter5574"
       x="-0.14485998"
       width="1.2897201"
       y="-0.13481142"
       height="1.2696228">
      <feGaussianBlur
         inkscape:collect="always"
         stdDeviation="9.2156237"
         id="feGaussianBlur5576" />
    </filter>
    <filter
       inkscape:collect="always"
       id="filter5562">
      <feGaussianBlur
         inkscape:collect="always"
         stdDeviation="1.3642241"
         id="feGaussianBlur5564" />
    </filter>
    <linearGradient
       inkscape:collect="always"
       xlink:href="#linearGradient4732"
       id="linearGradient5617"
       gradientUnits="userSpaceOnUse"
       gradientTransform="rotate(-176.323,132.49025,151.08834)"
       x1="68.873505"
       y1="51.558125"
       x2="175.17638"
       y2="109.70502" />
    <linearGradient
       id="linearGradient4732">
      <stop
         id="stop4734"
         offset="0"
         style="stop-color:#ffffff;stop-opacity:1" />
      <stop
         style="stop-color:#d7dad3;stop-opacity:1;"
         offset="0.15395921"
         id="stop4738" />
      <stop
         id="stop4736"
         offset="1"
         style="stop-color:white;stop-opacity:1;" />
    </linearGradient>
    <linearGradient
       inkscape:collect="always"
       xlink:href="#linearGradient5626"
       id="linearGradient5619"
       gradientUnits="userSpaceOnUse"
       gradientTransform="rotate(-176.323,132.49025,151.08834)"
       x1="179.23587"
       y1="142.29613"
       x2="148.46533"
       y2="51.268147" />
    <linearGradient
       id="linearGradient5626"
       gradientUnits="userSpaceOnUse"
       x1="135.96919"
       y1="291.77829"
       x2="41.1329"
       y2="74.766403">
      <stop
         offset="0"
         style="stop-color:#d16060;stop-opacity:1"
         id="stop5628" />
      <stop
         offset="1"
         style="stop-color:#dac0c5;stop-opacity:1"
         id="stop5631" />
    </linearGradient>
    <clipPath
       clipPathUnits="userSpaceOnUse"
       id="clipPath4748">
      <path
         d="M 155.5293,128.78906 41.039062,161.09961 78.347656,293.53516 C 116.71585,282.70697 156.24425,274.21964 193.12695,259.04102 178.2475,216.64081 168.77837,171.70581 155.5293,128.78906 Z"
         inkscape:href="#path652-6"
         id="path4750"
         style="color:#000000;display:inline;overflow:visible;visibility:visible;fill:none;stroke:#000000;stroke-width:1.10601008;stroke-opacity:1;marker:none;enable-background:accumulate"
         xlink:href="#path652-6"
         inkscape:original="M 155.5293 128.78906 L 41.039062 161.09961 L 78.347656 293.53516 C 116.71585 282.70697 156.24425 274.21964 193.12695 259.04102 C 178.2475 216.64081 168.77837 171.70581 155.5293 128.78906 z "
         inkscape:radius="0"
         sodipodi:type="inkscape:offset" />
    </clipPath>
    <filter
       inkscape:collect="always"
       id="filter4764">
      <feGaussianBlur
         inkscape:collect="always"
         stdDeviation="0.47475"
         id="feGaussianBlur4766" />
    </filter>
    <radialGradient
       inkscape:collect="always"
       xlink:href="#linearGradient5583"
       id="radialGradient5621"
       gradientUnits="userSpaceOnUse"
       gradientTransform="matrix(1.8538598,-0.05539543,0.03934884,1.3168464,-97.492667,-27.660481)"
       cx="117.19691"
       cy="126.45943"
       fx="117.19691"
       fy="126.45943"
       r="43" />
    <linearGradient
       inkscape:collect="always"
       id="linearGradient5583">
      <stop
         style="stop-color:#ffffff;stop-opacity:1;"
         offset="0"
         id="stop5585" />
      <stop
         style="stop-color:#ffffff;stop-opacity:0;"
         offset="1"
         id="stop5587" />
    </linearGradient>
    <filter
       inkscape:collect="always"
       id="filter5597"
       x="-0.12276876"
       width="1.2455375"
       y="-0.16192776"
       height="1.3238555">
      <feGaussianBlur
         inkscape:collect="always"
         stdDeviation="3.9132543"
         id="feGaussianBlur5599" />
    </filter>
    <filter
       inkscape:collect="always"
       id="filter5739">
      <feGaussianBlur
         inkscape:collect="always"
         stdDeviation="0.8985523"
         id="feGaussianBlur5741" />
    </filter>
    <linearGradient
       inkscape:collect="always"
       xlink:href="#linearGradient82201"
       id="linearGradient5737"
       gradientUnits="userSpaceOnUse"
       gradientTransform="rotate(-176.323,132.49025,151.08834)"
       x1="68.873505"
       y1="51.558125"
       x2="175.17638"
       y2="109.70502" />
    <linearGradient
       id="linearGradient82201">
      <stop
         style="stop-color:#eeeeee;stop-opacity:1"
         offset="0"
         id="stop82203" />
      <stop
         id="stop82205"
         offset="0.15395921"
         style="stop-color:#d7dad3;stop-opacity:1;" />
      <stop
         style="stop-color:white;stop-opacity:1;"
         offset="1"
         id="stop82207" />
    </linearGradient>
    <linearGradient
       inkscape:collect="always"
       xlink:href="#linearGradient6969-5"
       id="linearGradient81638-4"
       gradientUnits="userSpaceOnUse"
       gradientTransform="matrix(2.8615626,0,0,3.6867045,-117.22131,27.190584)"
       x1="-11.986486"
       y1="11.500009"
       x2="-11.986486"
       y2="28.976542" />
    <linearGradient
       inkscape:collect="always"
       id="linearGradient6969-5">
      <stop
         style="stop-color:#204a87;stop-opacity:1"
         offset="0"
         id="stop6971-9" />
      <stop
         style="stop-color:#729fcf;stop-opacity:1"
         offset="1"
         id="stop6973-3" />
    </linearGradient>
    <clipPath
       id="clipPath4719-3-3"
       clipPathUnits="userSpaceOnUse">
      <rect
         y="428"
         x="84"
         height="56"
         width="92"
         id="rect4721-9-7"
         style="fill:#000000;fill-opacity:1;stroke:none" />
    </clipPath>
    <filter
       height="1.6053097"
       y="-0.30265486"
       width="1.6053097"
       x="-0.30265486"
       id="filter4709-1-0"
       inkscape:collect="always"
       style="color-interpolation-filters:sRGB">
      <feGaussianBlur
         id="feGaussianBlur4711-29-9"
         stdDeviation="3.5333828"
         inkscape:collect="always" />
    </filter>
    <filter
       id="filter4608-6-0"
       inkscape:collect="always"
       style="color-interpolation-filters:sRGB">
      <feGaussianBlur
         id="feGaussianBlur4610-1-5"
         stdDeviation="0.84057318"
         inkscape:collect="always" />
    </filter>
    <filter
       height="1.405442"
       y="-0.20272098"
       width="1.222294"
       x="-0.11114702"
       id="filter4616-8-2"
       inkscape:collect="always"
       style="color-interpolation-filters:sRGB">
      <feGaussianBlur
         id="feGaussianBlur4618-0-5"
         stdDeviation="0.83939158"
         inkscape:collect="always" />
    </filter>
    <linearGradient
       inkscape:collect="always"
       xlink:href="#linearGradient4616-1-3"
       id="linearGradient81640-2"
       gradientUnits="userSpaceOnUse"
       gradientTransform="matrix(2.968333,0,0,4.8387798,-222.41578,-11.288882)"
       x1="25.355263"
       y1="33.357342"
       x2="25.355263"
       y2="31.76339" />
    <linearGradient
       id="linearGradient4616-1-3"
       inkscape:collect="always">
      <stop
         id="stop4618-9-7"
         offset="0"
         style="stop-color: rgb(46, 52, 54); stop-opacity: 1;" />
      <stop
         id="stop4620-2-6"
         offset="1"
         style="stop-color: rgb(46, 52, 54); stop-opacity: 0;" />
    </linearGradient>
    <linearGradient
       inkscape:collect="always"
       xlink:href="#linearGradient4610-7-8"
       id="linearGradient81642-3"
       gradientUnits="userSpaceOnUse"
       gradientTransform="matrix(1.0969936,0,0,1.3825125,-293.78497,-511.067)"
       x1="145"
       y1="481.125"
       x2="149.75"
       y2="492.875" />
    <linearGradient
       id="linearGradient4610-7-8"
       inkscape:collect="always">
      <stop
         id="stop4612-57-3"
         offset="0"
         style="stop-color: rgb(0, 0, 0); stop-opacity: 1;" />
      <stop
         id="stop4614-0-2"
         offset="1"
         style="stop-color: rgb(0, 0, 0); stop-opacity: 0;" />
    </linearGradient>
    <clipPath
       id="clipPath4396-4-0"
       clipPathUnits="userSpaceOnUse">
      <path
         id="path4398-9-9"
         d="m 79.40625,432.78125 c 4.95211,3.15625 10.09773,2.36004 13.8125,6.28125 0.20853,0.22012 0.41543,0.41335 0.625,0.625 -0.91227,0.0132 -3.36173,-0.64471 -5.8125,-0.21875 -2.03999,0.35455 -4.02605,-0.55433 -6.4375,1.03125 2.8086,-1.17696 5.05872,-0.41657 7.3125,-0.71875 1.75702,-0.23558 4.85952,0.60574 6.84375,1.75 3.19912,2.92004 6.06811,5.00342 6.65625,7.03125 0.75156,2.59125 0.93062,10.17703 0.96875,13.3125 -0.33977,-0.27402 -0.66062,-0.5645 -0.96875,-0.875 -0.68906,-0.71321 -1.34766,-1.47779 -2.15625,-2.0625 -0.77698,-0.56343 -1.58267,-1.08104 -2.21875,-1.8125 -0.66486,-0.8969 -1.44709,-1.69706 -2.1875,-2.53125 -0.70592,-0.72238 -1.45646,-1.39671 -2.125,-2.15625 -0.61554,-0.75741 -1.33614,-1.42319 -2.1875,-1.90625 -0.77581,-0.47272 -1.5828,-1.00327 -2.53125,-0.96875 -0.47451,-0.0791 -0.95887,-0.19127 -1.3125,-0.53125 -0.59769,-0.44175 -1.32432,-0.71337 -2.0625,-0.78125 l 0.125,0.0625 c 0.9109,0.24481 1.68179,0.8215 2.40625,1.40625 0.82464,0.41098 1.87022,0.34115 2.53125,1.0625 0.70456,0.74408 1.76065,1.14357 2.28125,2.0625 0.20942,0.35023 0.44974,0.66458 0.71875,0.96875 -0.70331,0.27896 -1.37908,1.26201 -1.875,1.59375 -1.29807,0.86836 -4.60919,-2.74752 -7.5,-2.40625 2.08544,-0.0469 5.75517,2.50843 6.46875,2.71875 0.55836,0.16459 -1.66639,2.10357 -3.375,3.03125 1.51744,-0.43138 3.97727,-2.51723 4.4375,-2.625 0.57771,-0.13527 1.16213,-1.94726 2.4375,-1.6875 0.26687,0.28232 0.53984,0.57255 0.78125,0.875 0.69303,0.78032 1.38577,1.54029 1.96875,2.40625 0.85162,1.06177 1.95474,1.87787 2.875,2.875 0.7471,0.7803 1.39506,1.64575 2.09375,2.46875 0.93323,1.12487 1.87928,2.25013 2.8125,3.375 0.42144,0.87267 1.03174,1.61036 1.65625,2.34375 0.66563,0.75999 1.30957,1.55781 1.8125,2.4375 0.59909,0.89138 1.1135,1.84141 1.5,2.84375 0.30827,0.94828 0.48395,1.92145 0.625,2.90625 0.19051,1.03702 0.34872,2.0991 0.25,3.15625 -0.14578,1.5715 -0.30651,3.14619 -0.4375,4.71875 -0.0217,0.7843 -0.12135,1.62135 0.25,2.34375 0.88575,0.56065 1.94401,0.69175 2.96875,0.75 0.86591,-0.0236 1.72648,-0.22461 2.46875,-0.6875 0.31904,-0.16231 0.63392,-0.49478 0.46875,-0.875 -0.18667,-1.01745 -0.40295,-2.03142 -0.5,-3.0625 -0.1344,-1.15271 -0.25974,-2.31102 -0.34375,-3.46875 -0.099,-1.09509 -0.14847,-2.18257 -0.1875,-3.28125 0.0322,-1.00198 0.0767,-2.03591 0.375,-3 0.32471,-0.94223 0.65194,-2.18347 1.25,-2.96875 0.85084,-1.04281 2.1162,-1.51624 3.09375,-2.4375 0.82415,-0.71738 1.68863,-1.38982 2.46875,-2.15625 0.75889,-0.71303 1.63356,-2.17099 2.3125,-2.96875 0.7624,-0.80646 1.48992,-0.89854 2.21875,-1.625 0.18969,-0.12973 0.38766,-0.25786 0.59375,-0.375 0.52915,-0.26792 1.04107,-0.57592 1.71875,-0.625 0.70029,0.0397 1.39399,-0.19008 2.09375,-0.0937 0.70007,0.0559 1.02933,0.72896 1.78125,0.65625 0.66535,-0.12321 1.35216,-0.12021 2.03125,-0.0625 -0.21541,-0.0835 -0.44604,-0.15445 -0.6875,-0.1875 -0.48981,-0.0904 -0.98368,0.0758 -1.46875,0.0313 -0.63207,-0.054 -0.8309,-0.55639 -1.375,-0.71875 -0.66242,-0.11588 -1.35944,0.10128 -2.03125,0.0625 -0.5382,-0.0737 -1.05528,0.0455 -1.59375,0.0313 0.76409,-1.1233 1.44323,-2.44724 2.25,-3.375 1.3398,-1.24472 2.98696,-2.48222 4.03125,-2.96875 1.39189,-0.64849 2.38459,0.15819 4.21875,-0.75 -2.03978,0.86066 -3.28052,-0.27726 -5.6875,1.125 -1.32634,0.76242 -2.21246,1.18656 -2.96875,1.71875 -1.58811,-1.34506 -0.70451,-6.06166 -2.09375,-8.78125 0.0827,-0.0958 0.125,-0.20732 0.125,-0.34375 1.54418,-0.65828 3.85538,-0.62579 5.34375,-0.34375 1.80941,0.34285 1.14282,0.69721 2.0625,0.75 0.8083,0.0464 2.21338,0.8335 3.34375,1.28125 1.22261,0.48428 1.53834,-0.0211 3.84375,1.21875 -1.65524,-1.12051 -3.34913,-1.13223 -3.59375,-1.40625 0.7457,-2.42944 3.79609,-2.88736 5.0625,-5.1875 -1.76435,2.59269 -4.05299,2.33985 -5.28125,5.09375 -1.22654,-0.34407 -2.44261,-0.89298 -3.0625,-1.28125 1.49793,-1.8748 -1.68651,-7.18964 -1.78125,-9 -0.11059,2.41309 2.83075,5.84705 1.25,8.8125 -3.16781,-1.25867 -5.75024,-0.78886 -7.4375,-0.40625 -0.0628,-0.0425 -0.14103,-0.0804 -0.21875,-0.0937 -1.38487,-2.04113 -0.95284,-3.54566 -2.5,-5.78125 0.85981,2.03517 1.03075,4.21454 1.875,5.96875 0.0201,0.0419 0.0431,0.0827 0.0625,0.125 -0.0386,0.0749 -0.0625,0.16002 -0.0625,0.25 0,0.22641 0.14749,0.41694 0.34375,0.5 0.92516,2.72077 0.58242,6.13236 0.8125,8.65625 -2.33949,-3.83923 -5.15618,-3.90227 -6.78125,-10.25 1.34906,7.76942 7.42824,8.46368 5.875,13.34375 -1.18921,1.23925 -3.11722,3.33597 -4.03125,4.25 -0.76285,0.67868 -1.59581,1.26835 -2.4375,1.84375 -0.87643,0.65389 -0.79689,1.13319 -1.71875,1.71875 -0.68733,0.46263 -2.24808,0.96188 -2.84375,1.4375 -0.77914,0.62211 -1.21036,1.46972 -1.875,2.3125 -0.35417,0.47917 -1.23958,0.61458 -1.5625,1.25 -0.32894,-1.33239 -1.28622,-3.80883 -3.09375,-4.84375 -0.89341,-0.51154 -1.89485,-1.4387 -2.625,-2.21875 -0.16244,-0.16986 -0.32136,-0.31728 -0.5,-0.46875 -1.2415,-3.00067 -1.37508,-6.70906 -1.65625,-10.0625 0.097,-0.0922 0.17429,-0.19076 0.28125,-0.28125 0.53668,-0.40499 1.03141,-0.85932 1.9375,-1.125 1.00361,-0.19673 1.64252,0.33535 2.6875,0.1875 1.01534,-0.18272 1.85205,-1.06453 2.84375,-1.375 0.83379,-0.32538 2.07498,-0.13823 3.0625,-0.3125 -1.14808,0.056 -2.26509,-0.14799 -3.375,0.1875 -0.91936,0.16193 -1.46612,1.11655 -2.34375,1.15625 -1.0076,0.1187 -1.63048,-0.40688 -2.59375,-0.21875 -0.80343,0.11401 -1.45915,0.39725 -2.21875,0.5625 -0.096,-0.0611 -0.4129,0.0496 -0.40625,-0.0625 -0.0616,-0.56577 -0.12813,-1.12745 -0.21875,-1.65625 -0.06,-3.89672 4.27346,-2.57015 5.15625,-3.25 0.58133,-0.44768 3.85453,-3.04945 6.75,-3.65625 -3.43517,0.61964 -6.89928,3.23605 -6.5625,2.40625 0.43039,-1.06043 0.76035,-7.91801 2.84375,-10.375 -3.23258,3.13778 -1.93744,10.59758 -4.28125,11.3125 -1.14933,0.35058 -3.94816,-0.0106 -4.4375,1.375 -0.10489,-0.29885 -0.21204,-0.57258 -0.34375,-0.84375 -0.84843,-1.74675 -3.20807,-3.66898 -5.71875,-5.84375 -0.24719,-1.22331 1.70858,-1.61353 1.90625,-2.125 0.15296,-0.39577 2.42162,-2.38883 3,-3.6875 -1.08179,1.42622 -3.17911,3.22298 -3.28125,2.71875 -0.13053,-0.6444 -2.23183,-4.07697 -1.96875,-5.90625 -0.63373,2.51321 2.51245,5.71105 1.53125,6.78125 -0.40432,0.441 -1.56827,1.00067 -1.8125,1.65625 -1.21315,-1.06576 -2.41928,-2.18039 -3.53125,-3.40625 -3.25105,-3.58405 -5.7455,-2.03174 -14.3125,-5.65625 z"
         style="display:inline;fill:#000000;fill-opacity:1;fill-rule:evenodd;stroke:none"
         inkscape:connector-curvature="0" />
    </clipPath>
    <filter
       id="filter4412-3-4"
       inkscape:collect="always"
       style="color-interpolation-filters:sRGB">
      <feGaussianBlur
         id="feGaussianBlur4414-08-9"
         stdDeviation="0.5940625"
         inkscape:collect="always" />
    </filter>
    <radialGradient
       r="46"
       fy="536.62244"
       fx="130"
       cy="536.62244"
       cx="130"
       gradientTransform="matrix(3.5206254,0,0,0.26301885,-608.85683,18.482138)"
       gradientUnits="userSpaceOnUse"
       id="radialGradient81697"
       xlink:href="#linearGradient4610-7-8"
       inkscape:collect="always" />
    <radialGradient
       r="43"
       fy="126.45943"
       fx="117.19691"
       cy="126.45943"
       cx="117.19691"
       gradientTransform="matrix(-2.4172118,0.85547689,0.60766824,1.7170104,276.64011,-137.51309)"
       gradientUnits="userSpaceOnUse"
       id="radialGradient5680"
       xlink:href="#linearGradient5583"
       inkscape:collect="always" />
  </defs>
  <sodipodi:namedview
     id="base"
     pagecolor="#ffffff"
     bordercolor="#666666"
     borderopacity="1.0"
     inkscape:pageopacity="0.0"
     inkscape:pageshadow="2"
     inkscape:zoom="1.7751634"
     inkscape:cx="184.28571"
     inkscape:cy="55.913857"
     inkscape:document-units="mm"
     inkscape:current-layer="layer1"
     showgrid="false"
     fit-margin-top="0"
     fit-margin-left="0"
     fit-margin-right="0"
     fit-margin-bottom="0"
     inkscape:window-width="1280"
     inkscape:window-height="736"
     inkscape:window-x="0"
     inkscape:window-y="27"
     inkscape:window-maximized="1"
     units="px" />
  <metadata
     id="metadata1959">
    <rdf:RDF>
      <cc:Work
         rdf:about="">
        <dc:format>image/svg+xml</dc:format>
        <dc:type
           rdf:resource="http://purl.org/dc/dcmitype/StillImage" />
        <dc:title></dc:title>
      </cc:Work>
    </rdf:RDF>
  </metadata>
  <g
     inkscape:label="Layer 1"
     inkscape:groupmode="layer"
     id="layer1"
     transform="translate(-1.0266635,-0.6141706)">
    <g
       style="display:inline;enable-background:new"
       id="g27007"
       transform="matrix(0.15365393,0,0,0.15365393,7.2037232,2.7005331)">
      <g
         id="g3938">
        <g
           style="display:inline;enable-background:new"
           id="g5637"
           transform="matrix(-0.93231771,0.36164028,0.36164028,0.93231771,121.94775,-121.15174)">
          <path
             sodipodi:nodetypes="ccccccc"
             inkscape:connector-curvature="0"
             id="path5641"
             d="m 155.53125,130.16376 -114.5,32.3125 L 78,294.22626 178.90625,265.75751 c 6.3543,-1.46637 14.8069,-5.30604 14.8069,-5.30604 l -5.40065,-13.50646 z"
             style="color:#000000;display:inline;overflow:visible;visibility:visible;opacity:0.1535088;fill:#000000;fill-opacity:1;fill-rule:nonzero;stroke:none;stroke-width:1.10601008;marker:none;filter:url(#filter5562-3);enable-background:accumulate" />
          <path
             style="color:#000000;display:inline;overflow:visible;visibility:visible;opacity:0.28508774;fill:#000000;fill-opacity:1;fill-rule:nonzero;stroke:none;stroke-width:1.10601008;marker:none;filter:url(#filter5574-7);enable-background:accumulate"
             d="m 155.53125,130.16376 -114.5,32.3125 L 78,294.22626 178.90625,265.75751 c 6.3543,-1.46637 14.8069,-5.30604 14.8069,-5.30604 l -5.40065,-13.50646 z"
             id="path5639"
             inkscape:connector-curvature="0"
             sodipodi:nodetypes="ccccccc" />
        </g>
        <g
           id="g5605"
           transform="translate(53.917986,-49.770448)">
          <path
             clip-path="none"
             mask="none"
             id="path614-2"
             d="m 96.057801,197.62401 17.515329,-31.28833 -6.94768,1.96128 -10.567539,29.32695 z"
             style="opacity:0.3;fill-rule:nonzero;stroke:none"
             inkscape:connector-curvature="0" />
          <g
             transform="translate(0,1.0368843)"
             id="g5601">
            <path
               sodipodi:nodetypes="ccccccc"
               inkscape:connector-curvature="0"
               id="path5568"
               d="m 155.53125,130.16376 -114.5,32.3125 L 78,294.22626 178.90625,265.75751 c 6.3543,-1.46637 14.8069,-5.30604 14.8069,-5.30604 l -5.40065,-13.50646 z"
               style="color:#000000;display:inline;overflow:visible;visibility:visible;opacity:0.43421056;fill:#000000;fill-opacity:1;fill-rule:nonzero;stroke:none;stroke-width:1.10601008;marker:none;filter:url(#filter5574);enable-background:accumulate" />
            <path
               style="color:#000000;display:inline;overflow:visible;visibility:visible;opacity:0.53070176;fill:#000000;fill-opacity:1;fill-rule:nonzero;stroke:none;stroke-width:1.10601008;marker:none;filter:url(#filter5562);enable-background:accumulate"
               d="m 155.53125,130.16376 -114.5,32.3125 L 78,294.22626 178.90625,265.75751 c 6.3543,-1.46637 14.8069,-5.30604 14.8069,-5.30604 l -5.40065,-13.50646 z"
               id="path5558"
               inkscape:connector-curvature="0"
               sodipodi:nodetypes="ccccccc" />
          </g>
          <path
             sodipodi:nodetypes="ccccc"
             clip-path="none"
             mask="none"
             style="color:#000000;display:inline;overflow:visible;visibility:visible;fill:url(#linearGradient5617);fill-opacity:1;fill-rule:nonzero;stroke:none;stroke-width:1.10601008;marker:none;enable-background:accumulate"
             d="m 193.12735,259.04147 c -36.8827,15.17862 -76.41062,23.66583 -114.778811,34.49402 L 41.039341,161.09919 155.52978,128.78824 c 13.24907,42.91675 22.71812,87.85302 37.59757,130.25323 z"
             id="path652-6"
             inkscape:connector-curvature="0" />
          <path
             sodipodi:nodetypes="ccccc"
             clip-path="none"
             mask="none"
             style="color:#000000;display:inline;overflow:visible;visibility:visible;fill:url(#linearGradient5619);fill-opacity:1;fill-rule:nonzero;stroke:none;stroke-width:1.62650001;marker:none;enable-background:accumulate"
             d="M 177.89611,230.92829 74.980588,259.97585 47.965623,164.76109 150.89304,135.71089 Z"
             id="path656-5"
             inkscape:connector-curvature="0" />
          <path
             clip-path="url(#clipPath4748)"
             d="M 155.5293,128.78906 41.039062,161.09961 78.347656,293.53516 C 116.71585,282.70697 156.24425,274.21964 193.12695,259.04102 178.2475,216.64081 168.77837,171.70581 155.5293,128.78906 Z"
             inkscape:href="#path652-6"
             id="path4742"
             style="color:#000000;display:inline;overflow:visible;visibility:visible;opacity:0.22807019;fill:none;stroke:#000000;stroke-width:0.76326501;stroke-opacity:1;marker:none;filter:url(#filter4764);enable-background:accumulate"
             xlink:href="#path652-6"
             inkscape:original="M 155.5293 128.78906 L 41.039062 161.09961 L 78.347656 293.53516 C 116.71585 282.70697 156.24425 274.21964 193.12695 259.04102 C 178.2475 216.64081 168.77837 171.70581 155.5293 128.78906 z "
             inkscape:radius="0"
             sodipodi:type="inkscape:offset" />
          <path
             sodipodi:nodetypes="ccccccccccccccccccccccccscccccccccccsccccccccc"
             inkscape:connector-curvature="0"
             id="path5519"
             d="m 63.381265,221.33742 0.631168,-0.67134 0.99513,-4.18247 2.703526,2.63649 3.087659,-1.12747 -0.09797,-2.89517 3.153832,2.5076 4.374969,-0.0344 2.093389,4.75996 2.669151,-1.73848 -3.898035,-11.06418 18.526808,-5.05988 2.12604,5.72502 4.503018,-1.28904 -0.83788,-2.92697 3.21658,-0.67716 1.61129,5.62877 7.72128,1.44371 -4.15412,-8.55486 4.2435,-5.59957 -0.8396,-6.33687 2.35119,5.66057 7.3999,2.02291 2.57979,12.41595 c 0,0 3.82842,0.60928 2.99141,-0.61273 -0.83701,-1.222 -3.05931,-6.43226 -3.05931,-6.43226 l 5.98283,-1.22544 -4.67318,-17.1759 3.24835,-1.41708 -3.3214,-15.85766 5.41221,15.50274 3.28188,1.25294 1.67746,9.26383 6.59382,-1.64394 1.74105,7.78402 3.37727,-0.96677 c 0,0 -4.79692,-7.39645 -3.44602,-7.78316 1.35091,-0.38672 6.36867,-1.5795 6.36867,-1.5795 l 2.48096,7.81582 7.81583,-2.48096 -1.38786,-9.10314 -4.79864,-10.80637 3.37553,-4.37669 16.69298,58.31402 -103.190188,29.61014 z"
             style="color:#000000;display:inline;overflow:visible;visibility:visible;fill:#5d1616;fill-opacity:1;stroke:none;stroke-width:2.7650249;marker:none;enable-background:accumulate" />
          <path
             d="m 120.75,120.5 -12.5,40.75 c 0,0 19.5,13.75 28.75,15.25 9.25,1.5 14.25,1.5 14.25,1.5 L 134,116.75 Z m -55.5,15 36.75,23 14.75,-37.25 z"
             style="color:#000000;display:inline;overflow:visible;visibility:visible;opacity:0.26315792;fill:url(#radialGradient5621);fill-opacity:1;fill-rule:nonzero;stroke:none;stroke-width:2;marker:none;enable-background:accumulate"
             transform="matrix(1.3825125,0,0,1.3825125,-30.205823,-31.335013)"
             id="path5580"
             inkscape:connector-curvature="0" />
          <path
             sodipodi:nodetypes="cccc"
             transform="matrix(1.3825125,0,0,1.3825125,-32.279592,-30.643757)"
             inkscape:connector-curvature="0"
             id="path5591"
             d="m 63,173.5 16.5,58 60,-16 C 110.34106,211.86701 84.170728,199.76627 63,173.5 Z"
             style="color:#000000;display:inline;overflow:visible;visibility:visible;opacity:0.26315792;fill:#ffffff;fill-opacity:1;fill-rule:nonzero;stroke:none;stroke-width:2;marker:none;filter:url(#filter5597);enable-background:accumulate" />
        </g>
        <path
           style="color:#000000;display:inline;overflow:visible;visibility:visible;fill:#ffffff;fill-opacity:1;fill-rule:nonzero;stroke:none;stroke-width:2;marker:none;enable-background:accumulate"
           d="M 91,103.75 172.75,80.5 172.25,82 93,104 l 23.25,89.25 z"
           id="path5624"
           inkscape:connector-curvature="0"
           transform="matrix(1.3825125,0,0,1.3825125,-30.205823,-31.335013)" />
        <g
           transform="matrix(-0.93231771,0.36164027,0.36164027,0.93231771,121.57277,-122.11845)"
           id="g5633">
          <path
             inkscape:connector-curvature="0"
             style="opacity:0.3;fill-rule:nonzero;stroke:none"
             d="m 96.057801,197.62401 17.515329,-31.28833 -6.94768,1.96128 -10.567539,29.32695 z"
             id="path5635"
             mask="none"
             clip-path="none" />
          <path
             sodipodi:type="inkscape:offset"
             inkscape:radius="0"
             inkscape:original="M 155.5293 128.78906 L 41.039062 161.09961 L 78.001953 292.84375 L 193.69141 261.14258 L 155.5293 128.78906 z "
             xlink:href="#path5643"
             style="color:#000000;display:inline;overflow:visible;visibility:visible;opacity:0.49561409;fill:#000000;fill-opacity:1;fill-rule:nonzero;stroke:none;stroke-width:1.10601008;marker:none;filter:url(#filter5739);enable-background:accumulate"
             id="path5735"
             inkscape:href="#path5643"
             d="M 155.5293,128.78906 41.039062,161.09961 78.001953,292.84375 193.69141,261.14258 Z"
             transform="translate(0.81725754,0.42442927)" />
          <path
             inkscape:connector-curvature="0"
             id="path5643"
             d="M 193.69137,261.1424 78.002911,292.84423 41.039341,161.09919 155.52978,128.78824 Z"
             style="color:#000000;display:inline;overflow:visible;visibility:visible;fill:url(#linearGradient5737);fill-opacity:1;fill-rule:nonzero;stroke:none;stroke-width:1.10601008;marker:none;enable-background:accumulate"
             mask="none"
             clip-path="none"
             sodipodi:nodetypes="ccccc" />
          <path
             style="color:#000000;display:inline;overflow:visible;visibility:visible;opacity:0.26315792;fill:#ffffff;fill-opacity:1;fill-rule:nonzero;stroke:none;stroke-width:2;marker:none;filter:url(#filter5597);enable-background:accumulate"
             d="m 63,173.5 16.5,58 60,-16 C 110.34106,211.86701 84.170728,199.76627 63,173.5 Z"
             id="path5653"
             inkscape:connector-curvature="0"
             transform="matrix(1.3825125,0,0,1.3825125,-32.279592,-30.643757)"
             sodipodi:nodetypes="cccc" />
          <g
             style="display:inline;enable-background:new"
             id="g81624"
             transform="matrix(-1.033868,0.29618128,0.29618128,1.033868,-77.890924,123.32847)">
            <rect
               inkscape:r_cy="true"
               inkscape:r_cx="true"
               style="display:inline;fill:url(#linearGradient81638-4);fill-opacity:1;stroke:none"
               id="rect6022"
               width="100.23215"
               height="88.480797"
               x="-201.63737"
               y="69.588402"
               rx="0"
               ry="0" />
            <g
               style="display:inline"
               id="g6024"
               clip-path="url(#clipPath4719-3-3)"
               transform="matrix(1.3825125,0,0,1.3825125,-317.76856,-520.74458)">
              <circle
                 style="display:inline;fill:#b6cee7;fill-opacity:1;stroke:none;filter:url(#filter4709-1-0)"
                 id="path6026"
                 transform="matrix(1.71312,0,0,1.37852,-77.8045,-183.178)"
                 cx="110.79479"
                 cy="483.02795"
                 r="14.009553" />
              <g
                 id="g6028">
                <circle
                   style="fill:#b6cee7;fill-opacity:1;stroke:none"
                   id="path6030"
                   transform="matrix(1.14208,0,0,1.14208,-14.5363,-68.6555)"
                   cx="110.79479"
                   cy="483.02795"
                   r="14.009553" />
                <circle
                   style="display:inline;fill:#e0eaf5;fill-opacity:1;stroke:none;filter:url(#filter4608-6-0)"
                   id="path6032"
                   transform="matrix(0.994857,0,0,0.994857,1.775,2.45615)"
                   cx="110.79479"
                   cy="483.02795"
                   r="14.009553" />
              </g>
            </g>
            <path
               transform="matrix(1.3825125,0,0,1.3825125,-203.01988,68.205885)"
               inkscape:connector-curvature="0"
               style="display:inline;fill:#ffffff;fill-opacity:1;stroke:none;filter:url(#filter4616-8-2)"
               d="m 28.9999,47.93738 c -5.0025,0 -9.0625,4.06 -9.0625,9.0625 0,0.2919 0,0.5902 0.031,0.875 h 18.0625 c 0.027,-0.2848 0.031,-0.5831 0.031,-0.875 0,-5.0025 -4.06,-9.0625 -9.0625,-9.0625 h -10e-5 z"
               id="path6034" />
            <path
               inkscape:connector-curvature="0"
               style="display:inline;fill:url(#linearGradient81640-2);fill-opacity:1;stroke:none"
               d="m -201.63751,148.56426 c 24.68028,-4.71645 44.83962,-0.23033 66.77949,-0.17282 l 34.14392,-2.4194 v 12.09699 h -100.92341 z"
               id="path6036"
               sodipodi:nodetypes="cccccc" />
            <path
               inkscape:connector-curvature="0"
               style="display:inline;fill:#000000;fill-opacity:1;fill-rule:evenodd;stroke:none"
               d="m -195.54573,76.198439 c 6.84634,4.363485 13.96019,3.262729 19.09595,8.683837 0.28825,0.304429 0.5743,0.571531 0.86407,0.86407 -1.26127,0.01825 -4.64759,-0.891305 -8.03585,-0.302355 -2.82033,0.490101 -5.56614,-0.766327 -8.89993,1.425647 3.88293,-1.627079 6.99372,-0.575817 10.10963,-0.993612 2.42907,-0.32572 6.71832,0.837388 9.4615,2.419397 4.42293,4.036936 8.38936,6.917263 9.20241,9.720721 1.0391,3.582506 1.28657,14.069966 1.33924,18.404696 -0.46964,-0.37881 -0.91328,-0.78043 -1.33924,-1.2097 -0.95269,-0.98601 -1.86321,-2.04294 -2.98111,-2.85143 -1.07407,-0.77891 -2.18796,-1.4945 -3.06738,-2.5058 -0.91923,-1.23998 -2.00063,-2.34613 -3.02424,-3.49942 -0.97592,-0.99873 -2.01363,-1.93095 -2.93784,-2.98111 -0.85094,-1.04711 -1.84718,-1.96759 -3.02425,-2.63535 -1.07255,-0.65351 -2.18824,-1.38707 -3.49955,-1.339373 -0.656,-0.109357 -1.32556,-0.264337 -1.81455,-0.734391 -0.82619,-0.610794 -1.83086,-0.986284 -2.85143,-1.080157 l 0.17281,0.08641 c 1.25933,0.338577 2.32511,1.135734 3.32674,1.944227 1.14002,0.568214 2.58558,0.471574 3.49942,1.468914 0.97412,1.02873 2.43419,1.58104 3.15392,2.85143 0.2895,0.48416 0.62172,0.91882 0.99361,1.33924 -0.97232,0.38573 -1.90648,1.74474 -2.59221,2.20345 -1.7945,1.20044 -6.37213,-3.79845 -10.36884,-3.32674 2.88323,-0.0648 7.95664,3.46804 8.9432,3.75878 0.77199,0.22756 -2.30382,2.90825 -4.66598,4.19067 2.09782,-0.59628 5.49866,-3.48006 6.1349,-3.6291 0.79867,-0.18691 1.60661,-2.69202 3.36987,-2.33299 0.36899,0.39043 0.74628,0.79163 1.08002,1.2097 0.95822,1.07892 1.91588,2.12949 2.72189,3.32674 1.17735,1.46795 2.7024,2.59622 3.97472,3.97473 1.03288,1.07877 1.92875,2.2752 2.89457,3.413 1.2903,1.55519 2.59815,3.11093 3.88832,4.66598 0.58272,1.20652 1.42647,2.2264 2.28985,3.24034 0.9202,1.05071 1.81054,2.15367 2.5058,3.36987 0.82827,1.23237 1.53943,2.54576 2.07377,3.93145 0.42623,1.31104 0.669,2.6565 0.86407,4.018 0.26337,1.43366 0.48209,2.90203 0.34563,4.36348 -0.20157,2.17262 -0.42374,4.34966 -0.60485,6.5238 -0.0304,1.08431 -0.16783,2.24147 0.34563,3.2402 1.22449,0.77517 2.6876,0.95642 4.10427,1.03688 1.19725,-0.0326 2.3869,-0.31051 3.41314,-0.95048 0.44102,-0.22438 0.87638,-0.68392 0.64799,-1.20969 -0.25798,-1.40657 -0.55702,-2.80844 -0.69126,-4.23395 -0.18581,-1.59362 -0.35904,-3.19498 -0.47517,-4.79552 -0.13687,-1.51399 -0.2053,-3.01747 -0.25922,-4.53644 0.0442,-1.38514 0.10645,-2.81465 0.51844,-4.14753 0.4489,-1.30261 0.90126,-3.01858 1.72814,-4.10427 1.17624,-1.44168 2.92567,-2.09616 4.27708,-3.36987 1.13947,-0.99182 2.33465,-1.92142 3.41315,-2.98112 1.04919,-0.98573 2.25847,-3.00143 3.19706,-4.10426 1.05402,-1.115 2.0598,-1.24219 3.06738,-2.24658 0.26226,-0.17931 0.536,-0.35655 0.82093,-0.51844 0.73149,-0.37038 1.43933,-0.79619 2.37612,-0.86408 0.96818,0.0549 1.92723,-0.26281 2.89471,-0.12954 0.9679,0.0773 1.42302,1.00772 2.46253,0.90721 0.91992,-0.17033 1.86943,-0.16618 2.8083,-0.0864 -0.2978,-0.11544 -0.6166,-0.21346 -0.95048,-0.25922 -0.67716,-0.12498 -1.35998,0.10479 -2.03063,0.0433 -0.87375,-0.0747 -1.14873,-0.76923 -1.90096,-0.99361 -0.91578,-0.16024 -1.87939,0.14004 -2.80816,0.0864 -0.74407,-0.1019 -1.45896,0.0629 -2.20345,0.0433 1.05638,-1.55298 1.99538,-3.38329 3.11066,-4.66598 1.85229,-1.72082 4.12956,-3.43168 5.57332,-4.10441 1.92432,-0.89656 3.29674,0.21872 5.8324,-1.03688 -2.81991,1.18993 -4.53533,-0.38323 -7.86304,1.55533 -1.83362,1.05416 -3.05867,1.64048 -4.10426,2.37626 -2.19557,-1.85962 -0.97398,-8.380375 -2.89471,-12.140256 0.11475,-0.132444 0.17282,-0.286594 0.17282,-0.475169 2.13487,-0.910108 5.33014,-0.865176 7.38787,-0.475308 2.50152,0.474064 1.57993,0.964026 2.85143,1.036884 1.11749,0.06415 3.06005,1.152325 4.6227,1.771414 1.6904,0.66955 2.12686,-0.02917 5.3141,1.684868 -2.28833,-1.549106 -4.63017,-1.565281 -4.96847,-1.944089 1.03094,-3.358814 5.24816,-3.991867 6.99897,-7.171784 -2.43917,3.58444 -5.60318,3.234803 -7.30132,7.042104 -1.69566,-0.475584 -3.37692,-1.234445 -4.23394,-1.771275 2.07086,-2.591934 -2.33161,-9.93985 -2.46267,-12.442612 -0.15277,3.336141 3.91361,8.08355 1.72814,12.183391 -4.37953,-1.740169 -7.94973,-1.090664 -10.28244,-0.561715 -0.0871,-0.05876 -0.19493,-0.111154 -0.30235,-0.129541 -1.91464,-2.821847 -1.31726,-4.901837 -3.45628,-7.992581 1.18868,2.813689 1.42495,5.826598 2.59221,8.251802 0.0276,0.05793 0.0594,0.114334 0.0871,0.172814 -0.0525,0.10355 -0.0871,0.22134 -0.0871,0.345628 0,0.313139 0.20392,0.576508 0.47517,0.691256 1.2791,3.76154 0.80531,8.478119 1.12329,11.967439 -3.23425,-5.30774 -7.12837,-5.39497 -9.37509,-14.170744 1.86514,10.741294 10.26957,11.701164 8.12226,18.447824 -1.64409,1.71335 -4.30957,4.61207 -5.57333,5.87568 -1.05458,0.93831 -2.20621,1.75358 -3.36987,2.54908 -1.21163,0.90402 -1.10159,1.56666 -2.37612,2.37612 -0.9502,0.63969 -3.10803,1.32984 -3.93159,1.98736 -1.07712,0.86007 -1.67326,2.03202 -2.59221,3.19706 -0.48955,0.6625 -1.71363,0.8497 -2.16018,1.72814 -0.45471,-1.84192 -1.77819,-5.26571 -4.27708,-6.69647 -1.23513,-0.70729 -2.61972,-1.98902 -3.62909,-3.06752 -0.22452,-0.23475 -0.44434,-0.43853 -0.69126,-0.64798 -1.71639,-4.14851 -1.90109,-9.27542 -2.28985,-13.91153 0.1341,-0.12747 0.24097,-0.26379 0.3889,-0.3889 0.74199,-0.55992 1.42592,-1.188 2.67861,-1.55533 1.38749,-0.27194 2.27078,0.46369 3.71551,0.25922 1.40366,-0.25259 2.56041,-1.47168 3.93145,-1.90095 1.15274,-0.44974 2.86871,-0.19107 4.23394,-0.43204 -1.58712,0.0774 -3.13139,-0.20461 -4.66598,0.25922 -1.27094,0.22397 -2.0269,1.54371 -3.24019,1.5986 -1.39302,0.1641 -2.25419,-0.56254 -3.58596,-0.30249 -1.11071,0.15774 -2.01723,0.54927 -3.06738,0.77766 -0.13273,-0.0845 -0.57084,0.0686 -0.56172,-0.0864 -0.0857,-0.78208 -0.1771,-1.55864 -0.30235,-2.28971 -0.0829,-5.387238 5.90816,-3.553335 7.12851,-4.493167 0.80379,-0.618951 5.32903,-4.215972 9.33196,-5.05488 -4.74907,0.856743 -9.53823,4.473948 -9.07274,3.32674 0.59503,-1.466017 1.05126,-10.946734 3.93159,-14.343567 -4.46911,4.338048 -2.67848,14.651314 -5.91895,15.639672 -1.58893,0.484709 -5.4583,-0.01466 -6.1349,1.900955 -0.14489,-0.413233 -0.2931,-0.791627 -0.47517,-1.166564 -1.17293,-2.414835 -4.43524,-5.0723 -7.90631,-8.078988 -0.34162,-1.691228 2.36216,-2.230684 2.63548,-2.937839 0.21152,-0.547199 3.34789,-3.302546 4.14754,-5.098015 -1.49561,1.971739 -4.39515,4.455838 -4.53644,3.758637 -0.18042,-0.890891 -3.08549,-5.636366 -2.72175,-8.165396 -0.8761,3.474531 3.47342,7.895529 2.1169,9.375094 -0.55895,0.609688 -2.16806,1.38348 -2.50581,2.289855 -1.67712,-1.473481 -3.34457,-3.01443 -4.88192,-4.709252 -4.49469,-4.954925 -7.94323,-2.808851 -19.78721,-7.819767 v -2.76e-4 0 z"
               id="path6038" />
            <path
               inkscape:connector-curvature="0"
               style="display:inline;opacity:0.79729698;fill:url(#linearGradient81642-3);fill-opacity:1;fill-rule:evenodd;stroke:none"
               d="m -137.01768,149.60114 c -1.08931,0.0664 -2.17479,0.22535 -2.81104,0.86407 0.0252,0.82315 0.63823,1.7851 1.13122,2.67862 0.99606,1.6456 2.00399,3.28029 3.01673,4.9252 h 5.45074 c -0.46863,-1.05859 -0.90183,-2.14303 -1.33702,-3.19706 -0.51043,-1.17486 -0.89865,-2.34004 -1.30267,-3.49942 -0.0461,-0.43328 -0.5813,-0.80877 -1.02843,-0.99375 -1.09118,-0.52743 -2.15549,-0.7507 -3.11953,-0.77766 z"
               id="path6040" />
            <path
               inkscape:connector-curvature="0"
               style="display:inline;opacity:0.49153197;fill:#729fcf;fill-opacity:1;fill-rule:evenodd;stroke:none;filter:url(#filter4412-3-4)"
               d="m 80.40625,432.78125 c 4.95211,3.15625 10.09773,2.36004 13.8125,6.28125 0.16682,0.1761 0.33306,0.33512 0.5,0.5 0.47081,0.0642 0.86634,0.12875 1.125,0.125 -0.20957,-0.21165 -0.41647,-0.40488 -0.625,-0.625 -3.01825,-3.18598 -6.9951,-3.26716 -11.03125,-4.875 -0.03474,-0.0138 -0.059,-0.0484 -0.09375,-0.0625 -1.10179,-0.36006 -2.29362,-0.75403 -3.6875,-1.34375 z m 18.125,0.625 c -0.63373,2.51321 2.51245,5.71105 1.53125,6.78125 -0.28982,0.31612 -0.95433,0.69532 -1.40625,1.125 0.12002,0.10757 0.25465,0.20603 0.375,0.3125 0.45504,-0.64981 1.60175,-0.96015 1.75,-1.34375 0.0395,-0.1023 0.21224,-0.3176 0.46875,-0.59375 0.007,-0.15893 -0.013,-0.33834 -0.0625,-0.53125 -0.36749,0.24581 -0.65336,0.32478 -0.6875,0.15625 -0.13053,-0.6444 -2.23183,-4.07697 -1.96875,-5.90625 z m 15.125,3 c -3.23258,3.13778 -1.93744,10.59758 -4.28125,11.3125 -0.87305,0.26631 -2.67739,0.13373 -3.71875,0.65625 0.10564,0.23081 0.1924,0.46561 0.28125,0.71875 0.48934,-1.38565 3.28817,-1.02442 4.4375,-1.375 0.40212,-0.12266 0.70836,-0.4424 0.9375,-0.90625 -0.37324,0.16279 -0.58924,0.18863 -0.5,-0.0313 0.43039,-1.06043 0.76035,-7.91801 2.84375,-10.375 z m -9.875,0.1875 c -0.65633,0.8653 -1.67467,1.86478 -2.40625,2.40625 0.035,0.0884 0.11425,0.25945 0.125,0.3125 0.006,0.0315 0.01,0.0483 0.0313,0.0625 0.76016,-0.80336 1.86771,-1.92287 2.25,-2.78125 z m 31.15625,1.28125 c -0.10681,2.33068 2.61199,5.60659 1.375,8.5 0.1879,0.0583 0.37002,0.14826 0.5625,0.21875 1.03088,-2.07763 -1.84715,-6.99222 -1.9375,-8.71875 z m -44.09375,1.4375 c -0.58853,-0.002 -1.19981,0.0498 -1.8125,0.15625 -0.24454,0.0425 -0.47494,0.0811 -0.71875,0.0937 0.57324,0.0163 1.14758,0.006 1.71875,-0.0937 0.3802,-0.0661 0.75059,-0.10454 1.125,-0.125 -0.10937,-0.003 -0.20125,-0.031 -0.3125,-0.0313 z m -4.90625,0.21875 c -1.05294,0.0153 -2.13802,0.17596 -3.34375,0.96875 0.73581,-0.30835 1.4245,-0.46615 2.09375,-0.5625 0.66231,-0.25997 1.29099,-0.37458 1.90625,-0.40625 -0.21749,-0.006 -0.43522,-0.003 -0.65625,0 z M 91.625,439.75 c -0.16769,-0.002 -0.31622,0.0195 -0.46875,0.0313 1.75151,0.14017 4.01985,0.84237 5.59375,1.75 3.19912,2.92004 6.06811,5.00342 6.65625,7.03125 0.69343,2.39084 0.87982,8.89902 0.9375,12.375 0.0202,0.021 0.0422,0.0415 0.0625,0.0625 0.30813,0.3105 0.62898,0.60098 0.96875,0.875 -0.0381,-3.13547 -0.21719,-10.72125 -0.96875,-13.3125 -0.58814,-2.02783 -3.45713,-4.11121 -6.65625,-7.03125 -1.7362,-1.00123 -4.32697,-1.76239 -6.125,-1.78125 z m -4.5,0.0625 c 0.65921,0.0186 1.30134,0.0547 1.9375,0.0313 -0.6308,-0.0149 -1.27239,-0.0416 -1.9375,-0.0313 z m 38.90625,0.59375 c 0.85981,2.03517 1.03075,4.21454 1.875,5.96875 0.0201,0.0419 0.0431,0.0827 0.0625,0.125 -0.0386,0.0749 -0.0625,0.16002 -0.0625,0.25 0,0.22641 0.14749,0.41694 0.34375,0.5 0.75795,2.22902 0.68188,4.89913 0.75,7.1875 0.35884,0.43277 0.71896,0.90498 1.0625,1.46875 -0.081,-0.88874 -0.10567,-1.89754 -0.125,-2.9375 -0.22118,-1.90879 -0.22993,-4.24515 -1.0625,-5.875 0.0353,-0.0409 0.0733,-0.0777 0.0937,-0.125 -0.004,-0.008 0.004,-0.0227 0,-0.0313 -0.0255,-0.0612 -0.0625,-0.11723 -0.0625,-0.1875 0,-0.09 0.024,-0.17511 0.0625,-0.25 -0.0194,-0.0423 -0.0424,-0.0831 -0.0625,-0.125 -0.0198,-0.0411 -0.0434,-0.0834 -0.0625,-0.125 -0.0287,0.006 -0.0655,0.0249 -0.0937,0.0313 -0.0628,-0.0425 -0.14103,-0.0804 -0.21875,-0.0937 -1.38487,-2.04113 -0.95284,-3.54566 -2.5,-5.78125 z m 19.03125,2.65625 c -1.69758,2.49457 -3.86818,2.37373 -5.125,4.8125 0.0526,0.0186 0.10315,0.0444 0.15625,0.0625 0.89869,-2.16469 3.75785,-2.67569 4.96875,-4.875 z m -27.6875,1.3125 c -2.19466,0.39587 -4.28042,1.54971 -5.5,2.15625 -0.0203,0.0759 -0.0419,0.19937 -0.0625,0.25 -0.0928,0.22874 0.15792,0.18098 0.5625,0 1.35368,-0.92023 3.20812,-2.03073 5,-2.40625 z m 4.90625,1.28125 c 1.34906,7.76942 7.42824,8.46368 5.875,13.34375 -1.18921,1.23925 -3.11722,3.33597 -4.03125,4.25 -0.76285,0.67868 -1.59581,1.26835 -2.4375,1.84375 -0.87643,0.65389 -0.79689,1.13319 -1.71875,1.71875 -0.68733,0.46263 -2.24808,0.96188 -2.84375,1.4375 -0.77914,0.62211 -1.21036,1.46972 -1.875,2.3125 -0.17709,0.23959 -0.47526,0.38932 -0.78125,0.5625 0.0747,0.23312 0.17111,0.49452 0.21875,0.6875 0.32292,-0.63542 1.20833,-0.77083 1.5625,-1.25 0.66464,-0.84278 1.09586,-1.69039 1.875,-2.3125 0.59567,-0.47562 2.15642,-0.97487 2.84375,-1.4375 0.92186,-0.58556 0.84232,-1.06486 1.71875,-1.71875 0.84169,-0.5754 1.67465,-1.16507 2.4375,-1.84375 0.91403,-0.91403 2.84204,-3.01075 4.03125,-4.25 0.39409,-1.23817 0.2929,-2.21057 -0.0937,-3.09375 -0.005,-0.008 0.005,-0.0235 0,-0.0313 -2.33668,-3.81627 -5.15947,-3.88386 -6.78125,-10.21875 z m 9.625,0.21875 c -0.92497,0.006 -1.69874,0.11176 -2.40625,0.25 0.0135,0.0204 0.0173,0.042 0.0313,0.0625 0.0777,0.0133 0.1559,0.0513 0.21875,0.0937 0.73442,-0.16654 1.63943,-0.32515 2.6875,-0.375 -0.17873,-0.007 -0.35939,-0.0323 -0.53125,-0.0313 z m 0.78125,0.34375 c -0.0732,0.003 -0.1456,0.0269 -0.21875,0.0313 0.67709,0.016 1.33761,0.0544 1.875,0.15625 1.80941,0.34285 1.14282,0.69721 2.0625,0.75 0.8083,0.0464 2.21338,0.8335 3.34375,1.28125 1.22261,0.48428 1.53834,-0.0211 3.84375,1.21875 -1.65524,-1.12051 -3.34913,-1.13223 -3.59375,-1.40625 0.0129,-0.0419 0.017,-0.0842 0.0313,-0.125 -0.0649,-0.0291 -0.12217,-0.0641 -0.1875,-0.0937 -0.0207,0.0437 -0.0423,0.0797 -0.0625,0.125 -1.00669,-0.2824 -1.9875,-0.7062 -2.65625,-1.0625 -0.18654,-0.0477 -0.28433,-0.1223 -0.40625,-0.21875 -0.0974,-0.077 -0.24506,-0.15717 -0.5,-0.25 -0.0108,0.0211 -0.02,0.0415 -0.0313,0.0625 -0.24588,-0.0977 -0.48007,-0.17228 -0.71875,-0.25 -0.0468,-0.01 -0.0744,-0.0217 -0.125,-0.0313 -0.74419,-0.14102 -1.69938,-0.22641 -2.65625,-0.1875 z M 86.625,448.25 l 0.125,0.0625 c 0.9109,0.24481 1.68179,0.8215 2.40625,1.40625 0.82464,0.41098 1.87022,0.34115 2.53125,1.0625 0.70456,0.74408 1.76065,1.14357 2.28125,2.0625 0.20942,0.35023 0.44974,0.66458 0.71875,0.96875 -0.70331,0.27896 -1.37908,1.26201 -1.875,1.59375 -0.0184,0.0123 -0.0433,0.0207 -0.0625,0.0313 0.26674,0.0829 0.5096,0.12431 0.71875,0.0937 0.35283,-0.4495 0.78212,-0.98745 1.375,-1.09375 0.27247,-0.26266 0.5507,-0.50877 0.84375,-0.625 -0.26901,-0.30417 -0.50933,-0.61852 -0.71875,-0.96875 -0.5206,-0.91893 -1.57669,-1.31842 -2.28125,-2.0625 -0.66103,-0.72135 -1.70661,-0.65152 -2.53125,-1.0625 -0.06827,-0.0551 -0.14958,-0.10156 -0.21875,-0.15625 -0.45456,-0.0788 -0.91165,-0.20596 -1.25,-0.53125 -0.59769,-0.44175 -1.32432,-0.71337 -2.0625,-0.78125 z m 28.3125,3.0625 c -0.5615,-0.002 -1.13254,0.0198 -1.6875,0.1875 -0.8619,0.15181 -1.40092,0.98682 -2.1875,1.125 0.15712,0.0284 0.29573,0.0585 0.46875,0.0625 0.008,-0.004 0.0232,0.004 0.0313,0 0.66399,-0.34171 1.29896,-0.84303 2,-1.0625 0.29196,-0.11393 0.63652,-0.16173 1,-0.1875 0.45253,-0.0986 0.91776,-0.12668 1.375,-0.125 -0.33672,-0.005 -0.66726,10e-4 -1,0 z m -6.28125,1.09375 c -0.11119,0.004 -0.22334,0.008 -0.34375,0.0313 -0.58666,0.0833 -1.09791,0.25436 -1.625,0.40625 0.003,0.0315 -0.003,0.0623 0,0.0937 -0.007,0.11209 0.31024,10e-4 0.40625,0.0625 0.72887,-0.15857 1.36514,-0.40917 2.125,-0.53125 -0.18386,-0.0329 -0.36151,-0.0695 -0.5625,-0.0625 z m 0.75,0.375 c -0.11556,0.005 -0.24955,0.007 -0.375,0.0313 0.5303,0.0941 1.02742,0.28089 1.6875,0.1875 0.0423,-0.008 0.0833,-0.0213 0.125,-0.0313 -0.48738,-0.0785 -0.91748,-0.20805 -1.4375,-0.1875 z m -23.5625,0.1875 c -0.18337,-0.008 -0.35057,0.01 -0.53125,0.0313 2.08544,-0.0469 5.75517,2.50843 6.46875,2.71875 0.55836,0.16459 -1.66639,2.10357 -3.375,3.03125 1.32776,-0.37746 3.38761,-2.02266 4.1875,-2.5 0.01714,-0.0102 0.01528,-0.0221 0.03125,-0.0313 0.21446,-0.26888 0.31472,-0.45329 0.15625,-0.5 -0.0892,-0.0263 -0.23354,-0.0976 -0.40625,-0.1875 -1.40032,0.064 -4.06601,-2.46133 -6.53125,-2.5625 z m 53.78125,0.0625 c -0.88641,0.37401 -1.6291,0.38336 -2.375,0.375 0.46305,-0.0347 0.90399,-0.0303 1.34375,-0.0313 0.31369,-0.0695 0.65846,-0.15916 1.03125,-0.34375 z m -2.375,0.375 c -0.97055,-0.0109 -1.9515,-0.0429 -3.3125,0.75 -0.98526,0.56636 -1.68584,0.93652 -2.3125,1.3125 0.1001,0.15403 0.21261,0.29518 0.34375,0.40625 0.43285,-0.30459 0.95516,-0.58877 1.53125,-0.90625 0.0447,-0.0331 0.0806,-0.0614 0.125,-0.0937 0.66035,-0.48117 1.29197,-0.8658 1.78125,-1.09375 0.34797,-0.16212 0.68254,-0.22024 1,-0.25 0.018,-0.004 0.0446,0.004 0.0625,0 0.27556,-0.0643 0.52793,-0.10604 0.78125,-0.125 z m -41.40625,1.03125 c -0.15346,0.0275 -0.30526,0.0776 -0.4375,0.15625 0.22223,0.23657 0.45596,0.46782 0.65625,0.71875 0.69303,0.78032 1.38577,1.54029 1.96875,2.40625 0.85162,1.06177 1.95474,1.87787 2.875,2.875 0.7471,0.7803 1.39506,1.64575 2.09375,2.46875 0.93323,1.12487 1.87928,2.25013 2.8125,3.375 0.42144,0.87267 1.03174,1.61036 1.65625,2.34375 0.66563,0.75999 1.30957,1.55781 1.8125,2.4375 0.59909,0.89138 1.1135,1.84141 1.5,2.84375 0.30827,0.94828 0.48395,1.92145 0.625,2.90625 0.19051,1.03702 0.34872,2.0991 0.25,3.15625 -0.14578,1.5715 -0.30651,3.14619 -0.4375,4.71875 -0.0217,0.7843 -0.12135,1.62135 0.25,2.34375 0.88575,0.56065 1.94401,0.69175 2.96875,0.75 0.15421,-0.004 0.31552,-0.0153 0.46875,-0.0313 -0.85535,-0.0774 -1.70207,-0.25325 -2.4375,-0.71875 -0.37135,-0.7224 -0.27171,-1.55945 -0.25,-2.34375 0.13099,-1.57256 0.29172,-3.14725 0.4375,-4.71875 0.0987,-1.05715 -0.0595,-2.11923 -0.25,-3.15625 -0.14105,-0.9848 -0.31673,-1.95797 -0.625,-2.90625 -0.3865,-1.00234 -0.90091,-1.95237 -1.5,-2.84375 -0.50293,-0.87969 -1.14687,-1.67751 -1.8125,-2.4375 -0.62451,-0.73339 -1.23481,-1.47108 -1.65625,-2.34375 -0.93322,-1.12487 -1.87927,-2.25013 -2.8125,-3.375 -0.69869,-0.823 -1.34665,-1.68845 -2.09375,-2.46875 -0.92026,-0.99713 -2.02338,-1.81323 -2.875,-2.875 -0.58298,-0.86596 -1.27572,-1.62593 -1.96875,-2.40625 -0.24141,-0.30245 -0.51438,-0.59268 -0.78125,-0.875 -0.15942,-0.0325 -0.29833,-0.0249 -0.4375,0 z M 132.25,460 c -0.27801,0.006 -0.56326,0.0349 -0.84375,0.0625 0.10242,0.002 0.20882,0.017 0.3125,0.0313 0.3359,0.0194 0.69022,-0.0275 1.03125,-0.0625 -0.1656,-0.029 -0.331,-0.0347 -0.5,-0.0313 z m -2.09375,0.0625 c -0.0128,0.019 -0.0184,0.0436 -0.0313,0.0625 0.19686,0.005 0.40053,-0.0167 0.59375,-0.0313 -0.19023,-0.0261 -0.37567,-0.039 -0.5625,-0.0313 z m 2.78125,0.21875 c -0.14219,0.006 -0.2642,0.0468 -0.40625,0.0625 0.65402,0.0921 0.99171,0.6953 1.71875,0.625 0.16682,-0.0309 0.33094,-0.0464 0.5,-0.0625 -0.11167,-0.0407 -0.21151,-0.0958 -0.3125,-0.15625 -0.10595,0.005 -0.20725,0.01 -0.3125,0 -0.40936,-0.035 -0.64885,-0.24056 -0.90625,-0.4375 -0.0927,-0.004 -0.18865,-0.0352 -0.28125,-0.0313 z m 2.28125,0.40625 c -0.072,10e-4 -0.14679,0.0254 -0.21875,0.0313 0.0432,0.009 0.0772,0.0272 0.125,0.0313 0.15833,0.0145 0.30899,-0.0171 0.46875,-0.0313 -0.12245,-0.0226 -0.25224,-0.0334 -0.375,-0.0313 z m 0.96875,0.1875 c -0.0641,0.002 -0.12357,0.0276 -0.1875,0.0313 0.0927,0.006 0.18873,-0.008 0.28125,0 -0.0298,-0.0116 -0.0634,-0.0202 -0.0937,-0.0313 z"
               id="path6048"
               clip-path="url(#clipPath4396-4-0)"
               transform="matrix(1.3825125,0,0,1.3825125,-305.32593,-522.1271)" />
            <path
               inkscape:connector-curvature="0"
               style="display:inline;fill:url(#radialGradient81697);fill-opacity:1;stroke:none"
               d="m -201.63751,148.56426 c 24.68028,-4.71645 44.83962,-0.23033 66.77949,-0.17282 l 34.14392,-2.4194 v 12.09699 h -100.92341 z"
               id="path6060"
               sodipodi:nodetypes="cccccc" />
          </g>
          <path
             inkscape:connector-curvature="0"
             id="path5661"
             style="color:#000000;display:inline;overflow:visible;visibility:visible;opacity:0.26315792;fill:url(#radialGradient5680);fill-opacity:1;fill-rule:nonzero;stroke:none;stroke-width:2;marker:none;enable-background:accumulate"
             d="m 65.721644,159.81043 40.178316,49.03653 c -1.02107,4.80894 -33.127292,39.78516 -33.127292,39.78516 L 47.828886,164.33579 Z m 77.732016,-22.58834 c -0.26874,31.03893 -19.8432,43.99547 -30.87274,64.95546 L 73.075232,158.07018 Z"
             sodipodi:nodetypes="ccccccccc" />
        </g>
      </g>
    </g>
  </g>
</svg>
