<?xml version="1.0" encoding="UTF-8" standalone="no"?>
<!-- Generator: Adobe Illustrator 22.0.1, SVG Export Plug-In . SVG Version: 6.00 Build 0)  -->

<svg
   version="1.1"
   id="Layer_1"
   x="0px"
   y="0px"
   viewBox="0 0 159.30001 159.3"
   xml:space="preserve"
   sodipodi:docname="tumblr.svg"
   width="159.3"
   height="159.3"
   inkscape:version="1.2.1 (9c6d41e410, 2022-07-14)"
   xmlns:inkscape="http://www.inkscape.org/namespaces/inkscape"
   xmlns:sodipodi="http://sodipodi.sourceforge.net/DTD/sodipodi-0.dtd"
   xmlns="http://www.w3.org/2000/svg"
   xmlns:svg="http://www.w3.org/2000/svg"><defs
   id="defs341" /><sodipodi:namedview
   id="namedview339"
   pagecolor="#ffffff"
   bordercolor="#666666"
   borderopacity="1.0"
   inkscape:showpageshadow="2"
   inkscape:pageopacity="0.0"
   inkscape:pagecheckerboard="0"
   inkscape:deskcolor="#d1d1d1"
   showgrid="false"
   inkscape:zoom="4.9089767"
   inkscape:cx="12.120652"
   inkscape:cy="79.650002"
   inkscape:window-width="1920"
   inkscape:window-height="1011"
   inkscape:window-x="0"
   inkscape:window-y="0"
   inkscape:window-maximized="1"
   inkscape:current-layer="Layer_1" />
<style
   type="text/css"
   id="style248">
	.st0{fill:#FFFFFF;}
	.st1{fill:#001935;}
	.st2{fill:#231F20;}
</style>
<text
   class="st0"
   style="font-size:45.8156px;font-family:MyriadPro-Regular"
   id="text250"
   x="-696.69513"
   y="-356.28101">Black #000000</text>
<text
   id="text260"
   x="-1587.3539"
   y="-356.28101"><tspan
     x="-1587.3539"
     y="-356.28101"
     class="st0"
     style="font-size:45.8156px;font-family:MyriadPro-Regular"
     id="tspan252">Notes:</tspan><tspan
     x="-1587.3539"
     y="-246.28101"
     class="st0"
     style="font-size:45.8156px;font-family:MyriadPro-Regular"
     id="tspan254">Always use the full wordmark</tspan><tspan
     x="-1587.3539"
     y="-191.38101"
     class="st0"
     style="font-size:45.8156px;font-family:MyriadPro-Regular"
     id="tspan256">unless you’re explicitly speaking to </tspan><tspan
     x="-1587.3539"
     y="-136.38101"
     class="st0"
     style="font-size:45.8156px;font-family:MyriadPro-Regular"
     id="tspan258">or marketing the iOS or Android app </tspan></text>
<text
   class="st0"
   style="font-size:21.8043px;font-family:MyriadPro-Regular"
   id="text262"
   x="-691.97113"
   y="189.9763">iOS icon</text>
<text
   class="st0"
   style="font-size:21.8043px;font-family:MyriadPro-Regular"
   id="text264"
   x="-696.69513"
   y="-111.0251">Wordmark (always use full word)</text>
<text
   class="st0"
   style="font-size:21.8043px;font-family:MyriadPro-Regular"
   id="text266"
   x="-369.3826"
   y="189.9763">Android Icon</text>
<text
   class="st0"
   style="font-size:21.8043px;font-family:MyriadPro-Regular"
   id="text268"
   x="-0.00025388421"
   y="189.9763">t icon</text>
<text
   class="st0"
   style="font-size:45.8156px;font-family:MyriadPro-Regular"
   id="text270"
   x="-696.69513"
   y="363.68301">White #000000</text>
<text
   class="st0"
   style="font-size:21.8043px;font-family:MyriadPro-Regular"
   id="text272"
   x="-691.97113"
   y="909.94043">iOS icon</text>
<text
   class="st0"
   style="font-size:21.8043px;font-family:MyriadPro-Regular"
   id="text274"
   x="-696.69513"
   y="608.9389">Wordmark (always use full word)</text>
<text
   class="st0"
   style="font-size:21.8043px;font-family:MyriadPro-Regular"
   id="text276"
   x="-369.3826"
   y="909.94043">Android Icon</text>
<text
   class="st0"
   style="font-size:21.8043px;font-family:MyriadPro-Regular"
   id="text278"
   x="-0.00025388421"
   y="909.94043">t icon</text>
<text
   class="st0"
   style="font-size:45.8156px;font-family:MyriadPro-Regular"
   id="text280"
   x="239.25819"
   y="-356.28101">Blue #001935</text>
<text
   class="st0"
   style="font-size:21.8043px;font-family:MyriadPro-Regular"
   id="text282"
   x="243.98219"
   y="189.9763">iOS icon</text>
<text
   class="st0"
   style="font-size:21.8043px;font-family:MyriadPro-Regular"
   id="text284"
   x="239.25819"
   y="-111.0251">Wordmark (always use full word)</text>
<text
   class="st0"
   style="font-size:21.8043px;font-family:MyriadPro-Regular"
   id="text286"
   x="566.57068"
   y="189.9763">Android Icon</text>
<text
   class="st0"
   style="font-size:21.8043px;font-family:MyriadPro-Regular"
   id="text288"
   x="935.953"
   y="189.9763">t icon</text>
<path
   class="st1"
   d="m 302.9,-147.5 c -24,0 -41.8,-12.3 -41.8,-41.8 v -47.2 h -21.8 v -25.6 c 24,-6.2 34,-26.8 35.1,-44.7 h 24.9 v 40.6 h 29 v 29.7 h -29 v 41.1 c 0,12.3 6.2,16.6 16.1,16.6 h 14.1 v 31.3 z m 89,1.4 c 13.6,0 29.3,-5.9 37.8,-16.4 v 15 h 44.8 V -173 h -11.4 v -93.3 H 409 v 25.9 h 15.4 v 44.9 c 0,3.6 -3,18.7 -23.3,18.7 -13,0 -15.4,-7.8 -15.4,-17.7 v -71.8 h -39.9 v 73.4 c 0,18.3 8.3,46.8 46.1,46.8 z m 96.9,-1.4 h 65.6 V -173 H 541 v -44.4 c 0,-6.5 5.5,-19.7 22.4,-19.7 13.6,0 16.4,8.3 16.4,18.1 v 46 h -13.2 v 25.5 h 65.1 V -173 H 618 v -44.4 c 0,-6.5 5,-19.7 21.9,-19.7 13.7,0 17.1,8.3 17.1,18.1 v 46 h -13 v 25.5 h 64.8 V -173 h -13.3 v -41.5 c 0,-24.4 -9.2,-53.2 -45.6,-53.2 -18,0 -32.7,8.5 -38.9,19 -7.8,-11.9 -19.7,-19 -37.4,-19 -14.1,0 -29.5,6 -37.8,17.4 v -16 h -49.2 v 25.9 h 15.9 V -173 H 489 v 25.5 z m 303,1.4 c 33.2,0 51,-24.9 51,-62.2 0,-35.8 -16.6,-59.3 -50.3,-59.3 -11.9,0 -23.7,4.5 -30.9,10 v -49.2 h -54.8 v 25.7 h 15.9 v 133.6 h 36.5 V -158 c 9.4,7.8 20.5,11.9 32.6,11.9 z m -8.3,-29 c -11.6,0 -23,-7.4 -23,-30.6 0,-28 13.5,-33 22.8,-33 10.8,0 20.4,8.8 20.4,30.5 0,31.4 -14.1,32.4 -20.2,33.1 z m 66.5,27.6 h 66 V -173 h -14 v -133.9 h -54.4 v 25.7 h 15.9 V -173 H 850 Z m 80.4,0 h 64.9 V -173 H 982 v -33.2 c 0,-22.6 15.9,-27.5 28,-27.5 h 16.1 v -34 h -13 c -14.7,0 -28.3,7.1 -34.4,18.5 v -17.2 h -49.4 v 25.9 h 14.3 v 67.4 h -13.1 v 25.6 z"
   id="path290" />
<path
   class="st1"
   d="m 999.6,159.3 c -24,0 -41.8,-12.3 -41.8,-41.8 V 70.3 H 936 V 44.7 C 960,38.5 970,17.9 971.1,0 H 996 v 40.6 h 29 v 29.7 h -29 v 41.1 c 0,12.3 6.2,16.6 16.1,16.6 h 14.1 v 31.3 z"
   id="path292" />
<g
   id="g298">
	<path
   class="st1"
   d="m 645.1,1.3 c -43.4,0 -78.6,35.1 -78.6,78.3 0,43.2 35.1,78.5 78.6,78.5 43.2,0 78.3,-35.3 78.3,-78.5 C 723.5,36.2 688.3,1.3 645.1,1.3 Z"
   id="path294" />
	<path
   class="st0"
   d="m 651.2,97.3 c 0,7.1 3.6,9.5 9.2,9.5 h 8.1 v 18 h -15.3 c -13.7,0 -24,-7.1 -24,-24 V 73.7 H 616.7 V 59 c 13.7,-3.6 19.5,-15.4 20.2,-25.6 h 14.3 v 23.3 h 16.6 v 17 h -16.6 v 23.6"
   id="path296" />
</g>
<g
   id="g304">
	<path
   class="st1"
   d="m 359.9,7.3 h -87 C 257,7.3 244,20.3 244,36.2 v 87 c 0,15.9 13,28.9 28.9,28.9 h 87 c 15.9,0 28.9,-13 28.9,-28.9 v -87 c 0,-15.9 -13,-28.9 -28.9,-28.9 z"
   id="path300" />
	<path
   class="st0"
   d="M 341.3,124.8 H 326 c -13.7,0 -24,-7.1 -24,-24 V 73.7 H 289.5 V 59 C 303.2,55.4 309,43.6 309.7,33.4 H 324 v 23.3 h 16.6 v 17 H 324 v 23.6 c 0,7.1 3.6,9.5 9.2,9.5 h 8.1 z"
   id="path302" />
</g>
<path
   class="st0"
   d="m -633.1,573.9 c -24,0 -41.8,-12.3 -41.8,-41.8 v -47.2 h -21.8 v -25.6 c 24,-6.2 34,-26.8 35.1,-44.7 h 24.9 v 40.6 h 29 v 29.7 h -29 V 526 c 0,12.3 6.2,16.6 16.1,16.6 h 14.1 v 31.3 z m 89.1,1.4 c 13.6,0 29.3,-5.9 37.8,-16.4 v 15 h 44.8 v -25.5 h -11.4 V 455.1 H -527 V 481 h 15.4 v 45 c 0,3.6 -3,18.7 -23.3,18.7 -13,0 -15.4,-7.8 -15.4,-17.7 v -71.8 h -39.9 v 73.4 c 0.1,18.3 8.4,46.7 46.2,46.7 z m 96.9,-1.4 h 65.6 v -25.5 h -13.4 V 504 c 0,-6.5 5.5,-19.7 22.4,-19.7 13.6,0 16.4,8.3 16.4,18.1 v 46 h -13.2 v 25.5 h 65.1 V 548.4 H -318 V 504 c 0,-6.5 5,-19.7 21.9,-19.7 13.7,0 17.1,8.3 17.1,18.1 v 46 h -13 v 25.5 h 64.8 v -25.5 h -13.3 V 507 c 0,-24.4 -9.2,-53.2 -45.6,-53.2 -18,0 -32.7,8.5 -38.9,19 -7.8,-11.9 -19.7,-19 -37.4,-19 -14.1,0 -29.5,6 -37.8,17.4 v -16 h -49.2 v 25.9 h 15.9 v 67.4 H -447 v 25.4 z m 303,1.4 c 33.2,0 51,-24.9 51,-62.2 0,-35.8 -16.6,-59.3 -50.3,-59.3 -11.9,0 -23.7,4.5 -30.9,10 v -49.2 h -54.8 v 25.7 h 15.9 v 133.6 h 36.5 v -10.5 c 9.3,7.9 20.5,11.9 32.6,11.9 z m -8.3,-28.9 c -11.6,0 -23,-7.4 -23,-30.6 0,-28 13.5,-33 22.8,-33 10.8,0 20.4,8.8 20.4,30.5 -0.1,31.4 -14.1,32.4 -20.2,33.1 z m 66.5,27.5 h 66 V 548.4 H -34 V 414.6 h -54.4 v 25.7 h 15.9 V 548.5 H -86 v 25.4 z m 80.4,0 H 59.4 V 548.4 H 46.1 v -33.2 c 0,-22.6 15.9,-27.5 28,-27.5 h 16.1 v -34 h -13 c -14.7,0 -28.3,7.1 -34.4,18.5 V 455 H -6.7 v 25.9 H 7.6 v 67.4 H -5.5 Z"
   id="path306" />
<path
   class="st0"
   d="m 63.6,880.8 c -24,0 -41.8,-12.3 -41.8,-41.8 V 791.8 H 0 V 766.2 C 24,760 34,739.4 35.1,721.5 H 60 V 762 h 29 v 29.7 H 60 v 41.1 c 0,12.3 6.2,16.6 16.1,16.6 h 14.1 v 31.3 H 63.6 Z"
   id="path308" />
<g
   id="g314">
	<path
   class="st0"
   d="m -290.8,722.7 c -43.4,0 -78.6,35.1 -78.6,78.3 0,43.2 35.1,78.5 78.6,78.5 43.2,0 78.3,-35.3 78.3,-78.5 0,-43.4 -35.1,-78.3 -78.3,-78.3 z"
   id="path310" />
	<path
   class="st2"
   d="m -284.7,818.8 c 0,7.1 3.6,9.5 9.2,9.5 h 8.1 v 18 h -15.3 c -13.7,0 -24,-7.1 -24,-24 v -27.1 h -12.5 v -14.7 c 13.7,-3.6 19.5,-15.4 20.2,-25.6 h 14.3 v 23.3 h 16.6 v 17 h -16.6 v 23.6"
   id="path312" />
</g>
<g
   id="g320">
	<path
   class="st0"
   d="m -576.1,728.7 h -87 c -15.9,0 -28.9,13 -28.9,28.9 v 87 c 0,15.9 13,28.9 28.9,28.9 h 87 c 15.9,0 28.9,-13 28.9,-28.9 v -87 c 0.1,-15.9 -13,-28.9 -28.9,-28.9 z"
   id="path316" />
	<path
   class="st2"
   d="m -594.6,846.2 h -15.3 c -13.7,0 -24,-7.1 -24,-24 v -27.1 h -12.5 v -14.7 c 13.7,-3.6 19.5,-15.4 20.2,-25.6 h 14.3 v 23.3 h 16.6 v 17 h -16.6 v 23.6 c 0,7.1 3.6,9.5 9.2,9.5 h 8.1 z"
   id="path318" />
</g>
<path
   d="m -633.1,-147.5 c -24,0 -41.8,-12.3 -41.8,-41.8 v -47.2 h -21.8 v -25.6 c 24,-6.2 34,-26.8 35.1,-44.7 h 24.9 v 40.6 h 29 v 29.7 h -29 v 41.1 c 0,12.3 6.2,16.6 16.1,16.6 h 14.1 v 31.3 z m 89.1,1.4 c 13.6,0 29.3,-5.9 37.8,-16.4 v 15 h 44.8 V -173 h -11.4 v -93.3 H -527 v 25.9 h 15.4 v 44.9 c 0,3.6 -3,18.7 -23.3,18.7 -13,0 -15.4,-7.8 -15.4,-17.7 v -71.8 h -39.9 v 73.4 c 0.1,18.3 8.4,46.8 46.2,46.8 z m 96.9,-1.4 h 65.6 V -173 h -13.4 v -44.4 c 0,-6.5 5.5,-19.7 22.4,-19.7 13.6,0 16.4,8.3 16.4,18.1 v 46 h -13.2 v 25.5 h 65.1 V -173 H -318 v -44.4 c 0,-6.5 5,-19.7 21.9,-19.7 13.7,0 17.1,8.3 17.1,18.1 v 46 h -13 v 25.5 h 64.8 V -173 h -13.3 v -41.5 c 0,-24.4 -9.2,-53.2 -45.6,-53.2 -18,0 -32.7,8.5 -38.9,19 -7.8,-11.9 -19.7,-19 -37.4,-19 -14.1,0 -29.5,6 -37.8,17.4 v -16 h -49.2 v 25.9 h 15.9 V -173 H -447 v 25.5 z m 303,1.4 c 33.2,0 51,-24.9 51,-62.2 0,-35.8 -16.6,-59.3 -50.3,-59.3 -11.9,0 -23.7,4.5 -30.9,10 v -49.2 h -54.8 v 25.7 h 15.9 v 133.6 h 36.5 V -158 c 9.3,7.8 20.5,11.9 32.6,11.9 z m -8.3,-29 c -11.6,0 -23,-7.4 -23,-30.6 0,-28 13.5,-33 22.8,-33 10.8,0 20.4,8.8 20.4,30.5 -0.1,31.4 -14.1,32.4 -20.2,33.1 z m 66.5,27.6 h 66 V -173 H -34 v -133.9 h -54.4 v 25.7 h 15.9 V -173 H -86 v 25.5 z m 80.4,0 H 59.4 V -173 H 46.1 v -33.2 c 0,-22.6 15.9,-27.5 28,-27.5 h 16.1 v -34 h -13 c -14.7,0 -28.3,7.1 -34.4,18.5 v -17.2 H -6.7 v 25.9 H 7.6 v 67.4 H -5.5 Z"
   id="path322" />
<path
   d="m 98.150002,159.3 c -24,0 -41.8,-12.3 -41.8,-41.8 V 70.3 h -21.8 V 44.7 c 24,-6.2 34,-26.8 35.1,-44.7 h 24.9 V 40.6 H 123.55 V 70.3 H 94.550002 v 41.1 c 0,12.3 6.199998,16.6 16.099998,16.6 h 14.1 v 31.3 z"
   id="path324" />
<g
   id="g330">
	<path
   d="m -290.8,1.3 c -43.4,0 -78.6,35.1 -78.6,78.3 0,43.2 35.1,78.5 78.6,78.5 43.2,0 78.3,-35.3 78.3,-78.5 0,-43.4 -35.1,-78.3 -78.3,-78.3 z"
   id="path326" />
	<path
   class="st0"
   d="m -284.7,97.3 c 0,7.1 3.6,9.5 9.2,9.5 h 8.1 v 18 h -15.3 c -13.7,0 -24,-7.1 -24,-24 V 73.7 h -12.5 V 59 c 13.7,-3.6 19.5,-15.4 20.2,-25.6 h 14.3 v 23.3 h 16.6 v 17 h -16.6 v 23.6"
   id="path328" />
</g>
<g
   id="g336">
	<path
   d="m -576.1,7.3 h -87 c -15.9,0 -28.9,13 -28.9,28.9 v 87 c 0,15.9 13,28.9 28.9,28.9 h 87 c 15.9,0 28.9,-13 28.9,-28.9 v -87 c 0.1,-15.9 -13,-28.9 -28.9,-28.9 z"
   id="path332" />
	<path
   class="st0"
   d="m -594.6,124.8 h -15.3 c -13.7,0 -24,-7.1 -24,-24 V 73.7 h -12.5 V 59 c 13.7,-3.6 19.5,-15.4 20.2,-25.6 h 14.3 v 23.3 h 16.6 v 17 h -16.6 v 23.6 c 0,7.1 3.6,9.5 9.2,9.5 h 8.1 z"
   id="path334" />
</g>
</svg>
