<?xml version="1.0" encoding="UTF-8" standalone="no"?>
<!-- Created with Inkscape (http://www.inkscape.org/) -->

<svg
   xmlns:dc="http://purl.org/dc/elements/1.1/"
   xmlns:cc="http://creativecommons.org/ns#"
   xmlns:rdf="http://www.w3.org/1999/02/22-rdf-syntax-ns#"
   xmlns:svg="http://www.w3.org/2000/svg"
   xmlns="http://www.w3.org/2000/svg"
   xmlns:xlink="http://www.w3.org/1999/xlink"
   xmlns:sodipodi="http://sodipodi.sourceforge.net/DTD/sodipodi-0.dtd"
   xmlns:inkscape="http://www.inkscape.org/namespaces/inkscape"
   height="128"
   id="svg11300"
   inkscape:export-filename="/home/atm/BZR-WORK/breathe-icon-set/source_svg/rendered/folder.png"
   inkscape:export-xdpi="90.000000"
   inkscape:export-ydpi="90.000000"
   inkscape:output_extension="org.inkscape.output.svg.inkscape"
   inkscape:version="0.46+devel r21274"
   sodipodi:docname="edit-undo.svg"
   sodipodi:version="0.32"
   style="display:inline"
   version="1.0"
   width="128">
  <title
     id="title4119">Breathe Icon Theme computer</title>
  <defs
     id="defs3">
    <linearGradient
       id="linearGradient6099">
      <stop
         id="stop6101"
         offset="0"
         style="stop-color: rgb(245, 216, 67); stop-opacity: 0;" />
      <stop
         id="stop6110"
         offset="0.25"
         style="stop-color: rgb(251, 239, 175); stop-opacity: 0.498039;" />
      <stop
         id="stop6108"
         offset="0.5"
         style="stop-color: rgb(245, 216, 67); stop-opacity: 1;" />
      <stop
         id="stop6103"
         offset="1"
         style="stop-color: rgb(245, 216, 67); stop-opacity: 0;" />
    </linearGradient>
    <linearGradient
       id="linearGradient6067">
      <stop
         id="stop6069"
         offset="0"
         style="stop-color: rgb(184, 127, 56); stop-opacity: 1;" />
      <stop
         id="stop6071"
         offset="1"
         style="stop-color: rgb(231, 180, 24); stop-opacity: 1;" />
    </linearGradient>
    <linearGradient
       id="linearGradient3784-6">
      <stop
         id="stop3786-8"
         offset="0"
         style="stop-color: rgb(254, 239, 77); stop-opacity: 1;" />
      <stop
         id="stop3788-2"
         offset="1"
         style="stop-color: rgb(239, 143, 1); stop-opacity: 1;" />
    </linearGradient>
    <linearGradient
       gradientTransform="matrix(1.94542,0,0,1.9106,125.273,-221.332)"
       gradientUnits="userSpaceOnUse"
       id="linearGradient2702"
       inkscape:collect="always"
       x1="79.490326"
       x2="96.127853"
       xlink:href="#linearGradient6099"
       y1="-46.872349"
       y2="-47.037727" />
    <linearGradient
       gradientTransform="matrix(0.981472,0,0,0.981472,0.0373616,2.64013)"
       gradientUnits="userSpaceOnUse"
       id="linearGradient2718"
       inkscape:collect="always"
       x1="-68.251457"
       x2="-65.059052"
       xlink:href="#linearGradient3784-6"
       y1="130.87476"
       y2="16.712191" />
    <linearGradient
       gradientUnits="userSpaceOnUse"
       id="linearGradient3498"
       inkscape:collect="always"
       x1="58.31213"
       x2="95.189972"
       xlink:href="#linearGradient6067"
       y1="114.0851"
       y2="33.47493" />
    <linearGradient
       gradientTransform="matrix(0.97965,0,0,1.05859,-88.7263,-68.4436)"
       gradientUnits="userSpaceOnUse"
       id="linearGradient3502"
       inkscape:collect="always"
       x1="79.490326"
       x2="96.127853"
       xlink:href="#linearGradient6099"
       y1="-46.872349"
       y2="-47.037727" />
    <linearGradient
       gradientUnits="userSpaceOnUse"
       id="linearGradient3512"
       inkscape:collect="always"
       x1="71.064232"
       x2="89.449013"
       xlink:href="#linearGradient6099"
       y1="46.788429"
       y2="46.788429" />
  </defs>
  <sodipodi:namedview
     bordercolor="#666666"
     borderopacity="0.25490196"
     fill="#f57900"
     gridtolerance="12"
     guidetolerance="13"
     height="300px"
     id="base"
     inkscape:current-layer="layer6"
     inkscape:cx="53.966747"
     inkscape:cy="60.480256"
     inkscape:document-units="px"
     inkscape:grid-bbox="true"
     inkscape:guide-bbox="true"
     inkscape:pageopacity="0.0"
     inkscape:pageshadow="2"
     inkscape:showpageshadow="false"
     inkscape:snap-bbox="true"
     inkscape:snap-nodes="false"
     inkscape:window-height="973"
     inkscape:window-width="1680"
     inkscape:window-x="230"
     inkscape:window-y="200"
     inkscape:zoom="5.3703704"
     objecttolerance="7"
     pagecolor="#ffffff"
     showgrid="false"
     showguides="true"
     stroke="#ef2929"
     width="400px">
    <inkscape:grid
       empspacing="5"
       enabled="true"
       id="grid5883"
       spacingx="1px"
       spacingy="1px"
       type="xygrid"
       visible="true" />
  </sodipodi:namedview>
  <metadata
     id="metadata4">
    <rdf:RDF>
      <cc:Work
         rdf:about="">
        <dc:format>image/svg+xml</dc:format>
        <dc:type
           rdf:resource="http://purl.org/dc/dcmitype/StillImage" />
        <dc:creator>
          <cc:Agent>
            <dc:title>Breathe Icon Team</dc:title>
          </cc:Agent>
        </dc:creator>
        <dc:source />
        <cc:license
           rdf:resource="http://creativecommons.org/licenses/by-nc-sa/3.0/" />
        <dc:title>Breathe Icon Theme folder</dc:title>
        <dc:subject>
          <rdf:Bag />
        </dc:subject>
        <dc:date />
        <dc:rights>
          <cc:Agent>
            <dc:title />
          </cc:Agent>
        </dc:rights>
        <dc:publisher>
          <cc:Agent>
            <dc:title />
          </cc:Agent>
        </dc:publisher>
        <dc:identifier />
        <dc:relation />
        <dc:language />
        <dc:coverage />
        <dc:description>folder</dc:description>
        <dc:contributor>
          <cc:Agent>
            <dc:title>Jakub Steiner, Cory Kontros, Oxygen icon team</dc:title>
          </cc:Agent>
        </dc:contributor>
      </cc:Work>
      <cc:License
         rdf:about="http://creativecommons.org/licenses/by-nc-sa/3.0/">
        <cc:permits
           rdf:resource="http://creativecommons.org/ns#Reproduction" />
        <cc:permits
           rdf:resource="http://creativecommons.org/ns#Distribution" />
        <cc:requires
           rdf:resource="http://creativecommons.org/ns#Notice" />
        <cc:requires
           rdf:resource="http://creativecommons.org/ns#Attribution" />
        <cc:prohibits
           rdf:resource="http://creativecommons.org/ns#CommercialUse" />
        <cc:permits
           rdf:resource="http://creativecommons.org/ns#DerivativeWorks" />
        <cc:requires
           rdf:resource="http://creativecommons.org/ns#ShareAlike" />
      </cc:License>
    </rdf:RDF>
  </metadata>
  <g
     id="layer1"
     inkscape:groupmode="layer"
     inkscape:label="actions/edit-undo"
     sodipodi:insensitive="true"
     style="display:inline"
     transform="translate(-2.2928932,-4)">
    <rect
       height="256"
       id="256x256"
       inkscape:label="256x256"
       style="fill:#eeeeec;fill-opacity:1;fill-rule:nonzero;stroke:none;stroke-width:5;marker:none;visibility:visible;display:none;overflow:visible"
       width="256"
       x="26.5"
       y="32.823101" />
    <rect
       height="48"
       id="48x48"
       inkscape:label="48x48"
       style="fill:#eeeeec;fill-opacity:1;fill-rule:nonzero;stroke:none;stroke-width:5;marker:none;visibility:visible;display:none;overflow:visible"
       width="48"
       x="-35.5"
       y="32.823101" />
    <text
       id="text6091"
       sodipodi:linespacing="125%"
       style="font-size:56.11529922px;font-style:normal;font-variant:normal;font-weight:bold;font-stretch:normal;text-indent:0pt;text-align:start;text-decoration:none;line-height:125%;letter-spacing:normal;word-spacing:normal;text-transform:none;direction:ltr;text-anchor:start;fill:#2e3436;fill-opacity:1;fill-rule:nonzero;stroke:none;stroke-width:5;marker:none;visibility:visible;display:none;overflow:visible;font-family:Myriad"
       x="-418.41199"
       xml:space="preserve"
       y="34.084801"><tspan
         id="tspan6093"
         sodipodi:role="line"
         x="-418.41199"
         y="34.084801">audio-x-generic</tspan></text>
    <g
       id="layer6"
       inkscape:groupmode="layer"
       inkscape:label="plate"
       style="display:none" />
    <g
       id="Livello_1"
       transform="translate(387.114,42.495)" />
    <g
       id="g3290"
       transform="translate(443.114,59.8843)" />
    <g
       id="g7148"
       transform="matrix(0.195657,0,0,0.195657,345.265,19.4029)" />
    <g
       id="g7555"
       transform="matrix(0.133333,0,0,0.133333,319.904,105.991)" />
    <g
       id="g9283"
       transform="matrix(1.06667,0,0,1.06667,384.447,40.4706)" />
    <rect
       height="256"
       id="rect4501"
       inkscape:label="256x256"
       style="fill:#eeeeec;fill-opacity:1;fill-rule:nonzero;stroke:none;stroke-width:5;marker:none;visibility:visible;display:none;overflow:visible"
       width="256"
       x="-82.344757"
       y="8.9524689" />
    <rect
       height="256"
       id="256x256-7"
       inkscape:label="256x256"
       style="fill:#eeeeec;fill-opacity:1;fill-rule:nonzero;stroke:none;stroke-width:5;marker:none;visibility:visible;display:none;overflow:visible"
       width="256"
       x="-78.422073"
       y="11.420288" />
    <text
       id="text3265-2"
       style="font-size:18px;font-style:normal;font-weight:normal;fill:#000000;fill-opacity:1;stroke:none;font-family:Bitstream Vera Sans"
       x="-1434.66"
       xml:space="preserve"
       y="-1597.53"><tspan
         id="tspan3267-1"
         sodipodi:role="line"
         x="-1434.66"
         y="-1597.53" /></text>
    <g
       id="g3514"
       transform="matrix(0,-1.3391518,-1.3434393,0,158.3207,151.00852)">
      <g
         id="g3520"
         transform="matrix(0,0.704088,-0.704088,0,115.854,112.401)">
        <path
           d="m -129.1583,89.340969 c 0,29.069931 24.94895,52.383211 60.986675,52.383211 2.416414,0 2.296929,-0.17318 2.103416,-0.97616 -0.708354,-0.53488 -3.058076,-1.08877 -8.507723,-3.2282 -5.449644,-2.13943 -10.347041,-5.00308 -14.418807,-8.36378 -4.071767,-3.3607 -7.328279,-7.23874 -9.583497,-11.50019 -2.255214,-4.26146 -3.484904,-8.9237 -3.484904,-13.76539 0,-5.253605 0.4176,-11.60951 3.049291,-16.161261 2.631688,-4.55175 5.388589,-8.461981 11.282389,-12.458546 5.324104,-3.610256 10.980502,-5.081679 17.42454,-6.44708 3.603382,-0.763507 6.592158,-0.324819 9.496374,-0.348491 l 0.261368,27.661457 0.217807,1.132595 1.001911,0.827666 1.263279,0.174245 1.176156,-0.435613 58.41577,-43.517788 -58.154401,-43.692034 -1.176157,-0.392052 -1.30684,0.174245 -0.95835,0.784105 -0.261368,1.176156 -0.65342,24.307233 c -2.06493,-0.008 -1.769132,0 -2.918611,0 -4.504719,0 -8.907266,0.387034 -13.155527,1.089034 -4.248268,0.701991 -8.336539,1.71609 -12.24074,3.049294 -7.808401,2.666405 -14.872281,6.559496 -20.778761,11.325951 -5.90648,4.766461 -10.67951,10.427409 -13.9832,16.727558 -3.30368,6.300149 -5.09667,13.206352 -5.09667,20.473835 l 0,0 z"
           id="path2697"
           sodipodi:nodetypes="cscssssssscccccccccccccsssssc"
           style="fill:url(#linearGradient2718);fill-opacity:1;fill-rule:evenodd;stroke:#d28d0a;stroke-width:1.05888581;stroke-linecap:butt;stroke-linejoin:miter;stroke-miterlimit:4;stroke-opacity:1;stroke-dasharray:none" />
      </g>
      <path
         d="m 77.625001,112.29283 29.779029,-39.506219 0.54419,-0.911612 -0.2058,-0.904029 -0.61742,-0.470971 -17.94064,-0.5 -0.05936,-4.25 -0.301777,-5.330806 -0.669194,-4.125 -1.044194,-4.625 -2.330806,-6.080806 -2.734835,-5.349111 -2.794194,-4.114277 -3.75,-4.3125 -2.5625,-2.375 -3.5,-2.375 -2.3125,-1.3125 -2.6875,-1.3125 -4.1875,-1.4375 -4.4375,-0.75 -2.75,-0.125 -2.125,0.0625 -2.625001,0.3125 -2.5,0.394667 -2.536612,0.617417 -2.356694,0.760724 -2.948223,1.323223 -2.440641,1.396447 -2.40533,1.561139 -2.518306,2.062499 -2.785155,2.563861 -2.933093,3.466338 -2.167511,3.631222 -2.15711,4.022747 -0.8611,2.80641 -0.768306,2.275889 -0.823223,2.974111 -0.995463,5.143306 -0.303233,2.8125 -0.283567,5.148166 1.9514,-5.831033 1.394667,-3.379633 1.8125,-3.1875 1.8125,-2.6875 2.0625,-2.375 1.8125,-2 2.75,-1.9375 2.9375,-1.875 4.635723,-1.820083 4.603554,-0.617417 5.929917,0.323223 3.08839,0.669194 c 1.865038,0.520834 2.633617,1.342083 4.050284,1.862916 l 2.880994,2.169194 1.996859,1.582376 1.554918,1.891736 1.884362,2.313861 1.8125,3.4375 1.452534,4.384267 1.359966,5.115733 0.0625,6.875 -20.187501,0.0625 -0.75,0.4375 0,0.8125 0.533471,0.705806 29.65403,39.899525 10e-7,0 z"
         id="path2720"
         sodipodi:nodetypes="cccccccccccccccccccccccccccccccccccccccccccccccccccccccccccccccccc"
         style="fill:none;stroke:url(#linearGradient3498);stroke-width:0.74554878;stroke-linecap:butt;stroke-linejoin:miter;stroke-miterlimit:4;stroke-opacity:1;stroke-dasharray:none" />
      <rect
         height="2.3642507"
         id="rect6097"
         style="fill:url(#linearGradient2702);fill-opacity:1;stroke:none"
         transform="matrix(-0.596855,0.802349,-0.876258,0.481842,0,0)"
         width="30.263727"
         x="279.99738"
         y="-312.49197" />
      <rect
         height="1.3099357"
         id="rect3500"
         style="fill:url(#linearGradient3502);fill-opacity:1;stroke:none;display:inline"
         transform="matrix(-0.999602,-0.0281914,-0.80538,-0.592759,0,0)"
         width="15.239809"
         x="-10.812289"
         y="-118.95138" />
      <path
         d="m 89.449009,65.526758 -0.795495,-0.08839 -0.176777,-5.656855 -1.149049,-5.568466 -0.839689,-3.623922 -2.916815,-6.496543 -2.519068,-4.86136 -2.563263,-3.668116 -4.065864,-4.507806 -3.358757,-2.563262 0.707107,-0.441942 3.093592,2.563262 2.209709,2.386486 2.474874,2.65165 1.944543,3.005204 2.828427,5.038136 2.121321,5.214913 0.972272,2.828427 1.767767,7.866563 0.265165,5.922019 0,2e-6 z"
         id="path3504"
         style="fill:url(#linearGradient3512);fill-opacity:1;fill-rule:evenodd;stroke:none" />
    </g>
    <g
       id="g3522"
       style="display:inline"
       transform="matrix(0,-0.4749072,-0.4889121,0,190.9745,57.111113)">
      <g
         id="g3524"
         transform="matrix(0,0.704088,-0.704088,0,115.854,112.401)" />
    </g>
    <g
       id="g3546"
       style="display:inline"
       transform="matrix(0,-0.314789,-0.314789,0,171.256,90.3258)">
      <g
         id="g3548"
         transform="matrix(0,0.704088,-0.704088,0,115.854,112.401)" />
    </g>
    <g
       id="g3573"
       transform="matrix(-0.14297,0,0,0.144613,137.034,89.9991)" />
    <g
       id="g2573">
      <g
         id="g3619"
         transform="matrix(-0.100439,0,0,0.1001,135.528,116.315)" />
    </g>
  </g>
</svg>
