<?xml version="1.0" encoding="utf-8"?>
<!-- Generator: Adobe Illustrator 13.0.2, SVG Export Plug-In . SVG Version: 6.00 Build 14948)  -->
<!DOCTYPE svg PUBLIC "-//W3C//DTD SVG 1.0//EN" "http://www.w3.org/TR/2001/REC-SVG-20010904/DTD/svg10.dtd">
<svg version="1.0"
	 id="svg2" xmlns:sodipodi="http://sodipodi.sourceforge.net/DTD/sodipodi-0.dtd" xmlns:inkscape="http://www.inkscape.org/namespaces/inkscape" xmlns:dc="http://purl.org/dc/elements/1.1/" xmlns:cc="http://creativecommons.org/ns#" xmlns:rdf="http://www.w3.org/1999/02/22-rdf-syntax-ns#" xmlns:svg="http://www.w3.org/2000/svg" sodipodi:version="0.32" sodipodi:modified="TRUE" inkscape:export-ydpi="45" inkscape:export-xdpi="45" sodipodi:docname="icon_star.svg" sodipodi:docbase="D:\gfx" inkscape:version="0.46" inkscape:export-filename="D:\proj\icons\released\icon_star.png" inkscape:output_extension="org.inkscape.output.svg.inkscape"
	 xmlns="http://www.w3.org/2000/svg" xmlns:xlink="http://www.w3.org/1999/xlink" x="0px" y="0px" width="30px" height="30px"
	 viewBox="0 0 30 30" enable-background="new 0 0 30 30" xml:space="preserve">
<sodipodi:namedview  width="30px" height="30px" id="base" showguides="true" pagecolor="#ffffff" inkscape:cy="13.102534" inkscape:cx="9.9653605" inkscape:zoom="19.021172" gridtolerance="10000" showgrid="false" borderopacity="1.0" bordercolor="#666666" inkscape:snap-global="true" inkscape:window-y="20" inkscape:window-x="1" inkscape:window-height="1003" inkscape:window-width="1679" inkscape:grid-points="true" inkscape:current-layer="layer1" inkscape:document-units="px" inkscape:pageshadow="2" inkscape:pageopacity="0.0">
	<inkscape:grid  type="xygrid" id="grid2395"></inkscape:grid>
</sodipodi:namedview>
<g>
	<polygon id="rect3465" fill="#427BC3" points="16,12.5 22,12.5 22,12.5 	"/>
	<path id="path2426" fill="#5F5F5F" d="M15.005,0.969c-0.412-0.01-0.792,0.222-0.972,0.592l-3.961,8.046l-8.833,1.298
		c-0.396,0.056-0.727,0.332-0.853,0.713c-0.125,0.38-0.024,0.799,0.261,1.08l6.431,6.247L5.55,27.773
		c-0.071,0.4,0.096,0.807,0.428,1.041c0.332,0.236,0.77,0.259,1.125,0.06l7.931-4.154l7.902,4.136
		c0.354,0.184,0.78,0.152,1.104-0.08c0.322-0.233,0.486-0.629,0.423-1.021l-1.522-8.793l6.422-6.288
		c0.303-0.28,0.414-0.711,0.285-1.103c-0.129-0.392-0.475-0.672-0.885-0.717l-8.857-1.249l-3.955-8.037
		C15.775,1.204,15.409,0.971,15.005,0.969L15.005,0.969z"/>
	
		<linearGradient id="path2428_1_" gradientUnits="userSpaceOnUse" x1="-43.2197" y1="-49.6968" x2="-32.2973" y2="-58.5979" gradientTransform="matrix(0.9948 0.1014 0.1014 -0.9948 58.9338 -31.8961)">
		<stop  offset="0" style="stop-color:#FEECB5"/>
		<stop  offset="1" style="stop-color:#FBFC3E"/>
	</linearGradient>
	<path id="path2428" fill="url(#path2428_1_)" d="M14.977,2.788l-3.89,7.959c-0.036,0.076-0.098,0.137-0.174,0.171
		c-0.021,0.01-0.043,0.019-0.065,0.024l-8.703,1.249l6.316,6.141c0.084,0.085,0.119,0.207,0.092,0.324l-1.481,8.676l7.801-4.105
		c0.099-0.05,0.215-0.049,0.314,0l7.781,4.092l-1.5-8.696c-0.02-0.11,0.016-0.225,0.094-0.305l6.314-6.173l-8.701-1.232
		c-0.112-0.015-0.211-0.083-0.264-0.184L14.977,2.788z"/>
</g>
</svg>
